<svg xmlns="http://www.w3.org/2000/svg" xmlns:xlink="http://www.w3.org/1999/xlink" viewBox="0 0 1082 242"><defs><style>.cls-1{stroke:#00a7bf;stroke-miterlimit:10;stroke-width:2px;fill:url(#Degradado_sin_nombre_57);}.cls-2{fill:#009574;}</style><linearGradient id="Degradado_sin_nombre_57" x1="157.64" y1="-54.25" x2="895.5" y2="283.06" gradientTransform="translate(1082 242) rotate(-180)" gradientUnits="userSpaceOnUse"><stop offset="0" stop-color="#f0ffd4"/><stop offset="0.26" stop-color="#f1ffd7"/><stop offset="0.45" stop-color="#f5ffe1"/><stop offset="0.62" stop-color="#fafff1"/><stop offset="0.7" stop-color="#fefffb"/><stop offset="0.7" stop-color="#fff"/><stop offset="1" stop-color="#f0ffd4"/></linearGradient></defs><title>encuentrame_home_hero</title><g id="Capa_2" data-name="Capa 2"><g id="Capa_1-2" data-name="Capa 1"><rect class="cls-1" x="1" y="1" width="1080" height="240" rx="12" transform="translate(1082 242) rotate(180)"/><path class="cls-2" d="M110,147.9a30,30,0,0,1-15.07-3.72,26.81,26.81,0,0,1-10.28-10.34,30.2,30.2,0,0,1-3.73-15.11,31.55,31.55,0,0,1,3.52-15.17,26.28,26.28,0,0,1,24-14.12,26.13,26.13,0,0,1,13.91,3.63,24.44,24.44,0,0,1,9.18,10,31.75,31.75,0,0,1,3.26,14.59,3.5,3.5,0,0,1-1.06,2.67,3.77,3.77,0,0,1-2.72,1H86.36v-6.72h45.45l-4.52,3.26a24,24,0,0,0-2.2-10.92,18,18,0,0,0-6.56-7.55,18.33,18.33,0,0,0-10.13-2.73,19.27,19.27,0,0,0-10.49,2.83,18.92,18.92,0,0,0-7,7.82,25.27,25.27,0,0,0-2.47,11.39,22.7,22.7,0,0,0,2.78,11.33,20.5,20.5,0,0,0,7.61,7.77A21.57,21.57,0,0,0,110,140.66a23.3,23.3,0,0,0,7.61-1.31,18.42,18.42,0,0,0,6.14-3.31,4.21,4.21,0,0,1,2.62-1,3.66,3.66,0,0,1,2.52.78,3.86,3.86,0,0,1,1.41,2.73,3,3,0,0,1-1.2,2.52,28.44,28.44,0,0,1-8.82,4.88A30,30,0,0,1,110,147.9Z"/><path class="cls-2" d="M152.48,147.38a4,4,0,0,1-3-1.1,3.94,3.94,0,0,1-1.1-2.89V94.06A3.8,3.8,0,0,1,152.48,90a3.94,3.94,0,0,1,2.89,1.1,4.06,4.06,0,0,1,1.1,3v49.33a3.78,3.78,0,0,1-4,4Zm45.13,0a4,4,0,0,1-2.94-1.16,3.82,3.82,0,0,1-1.15-2.83V116.1a20.94,20.94,0,0,0-2.47-10.7,15.7,15.7,0,0,0-6.72-6.3,22.79,22.79,0,0,0-18.89-.1,16.56,16.56,0,0,0-6.56,5.45,13.44,13.44,0,0,0-2.41,7.87H150.7a22.62,22.62,0,0,1,3.57-11.8,23.85,23.85,0,0,1,8.92-8.19,25.73,25.73,0,0,1,12.38-3,28.1,28.1,0,0,1,13.33,3.1,22.77,22.77,0,0,1,9.29,9.07,29.1,29.1,0,0,1,3.41,14.59v27.29a3.94,3.94,0,0,1-4,4Z"/><path class="cls-2" d="M245.05,147.9a28.3,28.3,0,0,1-14.75-3.83,27.8,27.8,0,0,1-10.18-10.44,29.88,29.88,0,0,1-3.72-14.9,31.09,31.09,0,0,1,3.57-15,27.12,27.12,0,0,1,9.76-10.44A26.48,26.48,0,0,1,244,89.44,27.62,27.62,0,0,1,255.81,92a26.69,26.69,0,0,1,9.49,7.56,2.89,2.89,0,0,1,.84,2.68,4.15,4.15,0,0,1-1.78,2.46,3.19,3.19,0,0,1-2.57.58,4.12,4.12,0,0,1-2.47-1.52A19.54,19.54,0,0,0,244,96.79a18.85,18.85,0,0,0-10.34,2.84,19.11,19.11,0,0,0-6.93,7.76,25.09,25.09,0,0,0-2.46,11.34A23.56,23.56,0,0,0,226.89,130a19.61,19.61,0,0,0,7.35,7.76,20.59,20.59,0,0,0,10.81,2.84,24.09,24.09,0,0,0,7.5-1.11,16.78,16.78,0,0,0,6-3.41,4.68,4.68,0,0,1,2.62-1.15,3.45,3.45,0,0,1,2.52.84,4.12,4.12,0,0,1,1.42,2.62,2.86,2.86,0,0,1-1,2.52Q256.49,147.91,245.05,147.9Z"/><path class="cls-2" d="M306.86,148a28.12,28.12,0,0,1-13.33-3.1,22.71,22.71,0,0,1-9.28-9.08,28.93,28.93,0,0,1-3.41-14.58V94a3.93,3.93,0,0,1,4-4,4,4,0,0,1,2.94,1.15A3.87,3.87,0,0,1,288.92,94v27.29a21,21,0,0,0,2.46,10.7,15.81,15.81,0,0,0,6.72,6.3,21.39,21.39,0,0,0,9.6,2.1,21.14,21.14,0,0,0,9.29-2,16.57,16.57,0,0,0,6.56-5.45A13.46,13.46,0,0,0,326,125h5.77a23.41,23.41,0,0,1-12.49,20A25.79,25.79,0,0,1,306.86,148Zm23.09-.63a3.9,3.9,0,0,1-2.88-1.1,4,4,0,0,1-1.1-3V94a3.78,3.78,0,0,1,4-4,4.1,4.1,0,0,1,2.94,1.1A3.83,3.83,0,0,1,334.05,94v49.33a4,4,0,0,1-1.16,3A4.1,4.1,0,0,1,330,147.38Z"/><path class="cls-2" d="M379,147.9a30,30,0,0,1-15.07-3.72,26.81,26.81,0,0,1-10.28-10.34,30.31,30.31,0,0,1-3.73-15.11,31.55,31.55,0,0,1,3.52-15.17,26.28,26.28,0,0,1,24-14.12,26.13,26.13,0,0,1,13.91,3.63,24.44,24.44,0,0,1,9.18,10,31.74,31.74,0,0,1,3.25,14.59,3.52,3.52,0,0,1-1,2.67,3.8,3.8,0,0,1-2.73,1H355.35v-6.72H400.8l-4.52,3.26a24,24,0,0,0-2.2-10.92,18,18,0,0,0-6.56-7.55,18.33,18.33,0,0,0-10.13-2.73,19.27,19.27,0,0,0-10.49,2.83,18.92,18.92,0,0,0-7,7.82,25.27,25.27,0,0,0-2.47,11.39,22.7,22.7,0,0,0,2.78,11.33,20.5,20.5,0,0,0,7.61,7.77A21.57,21.57,0,0,0,379,140.66a23.2,23.2,0,0,0,7.6-1.31,18.32,18.32,0,0,0,6.14-3.31,4.26,4.26,0,0,1,2.63-1,3.66,3.66,0,0,1,2.52.78,3.86,3.86,0,0,1,1.41,2.73,3,3,0,0,1-1.2,2.52,28.44,28.44,0,0,1-8.82,4.88A30,30,0,0,1,379,147.9Z"/><path class="cls-2" d="M421.47,147.38a4,4,0,0,1-3-1.1,3.94,3.94,0,0,1-1.1-2.89V94.06A3.8,3.8,0,0,1,421.47,90a3.94,3.94,0,0,1,2.89,1.1,4.06,4.06,0,0,1,1.1,3v49.33a3.78,3.78,0,0,1-4,4Zm45.13,0a4,4,0,0,1-2.94-1.16,3.82,3.82,0,0,1-1.15-2.83V116.1A20.84,20.84,0,0,0,460,105.4a15.7,15.7,0,0,0-6.72-6.3,22.79,22.79,0,0,0-18.89-.1,16.56,16.56,0,0,0-6.56,5.45,13.44,13.44,0,0,0-2.41,7.87h-5.77a22.53,22.53,0,0,1,3.57-11.8,23.85,23.85,0,0,1,8.92-8.19,25.73,25.73,0,0,1,12.38-3,28.1,28.1,0,0,1,13.33,3.1,22.77,22.77,0,0,1,9.29,9.07,29.1,29.1,0,0,1,3.41,14.59v27.29a4,4,0,0,1-4,4Z"/><path class="cls-2" d="M484.76,99.1a3.65,3.65,0,0,1-2.63-1,3.24,3.24,0,0,1-1.05-2.46,3.38,3.38,0,0,1,1.05-2.57,3.65,3.65,0,0,1,2.63-1h26.76a3.63,3.63,0,0,1,2.62,1,3.38,3.38,0,0,1,1.05,2.57,3.24,3.24,0,0,1-1.05,2.46,3.63,3.63,0,0,1-2.62,1Zm26.13,48.28a18.6,18.6,0,0,1-16.79-9.81,21.29,21.29,0,0,1-2.52-10.45V75.8a4.1,4.1,0,0,1,1.1-2.94,3.82,3.82,0,0,1,2.89-1.15,3.94,3.94,0,0,1,4.09,4.09v51.32a12.43,12.43,0,0,0,3.15,8.77,10.51,10.51,0,0,0,8.08,3.41h2.83a3.51,3.51,0,0,1,2.73,1.15,4.2,4.2,0,0,1,1,2.94,3.67,3.67,0,0,1-1.26,2.89,4.63,4.63,0,0,1-3.15,1.1Z"/><path class="cls-2" d="M534.61,147.38a3.65,3.65,0,0,1-4-4V94a4,4,0,1,1,8,0v49.43a3.65,3.65,0,0,1-4,4ZM534,112a24.44,24.44,0,0,1,3.41-11.65,22.91,22.91,0,0,1,8.08-8.08,21.39,21.39,0,0,1,11.07-2.94A16.56,16.56,0,0,1,564,90.7a3.3,3.3,0,0,1,2,4,3.1,3.1,0,0,1-1.42,2.1,4.39,4.39,0,0,1-2.41.42L559,97a23.3,23.3,0,0,0-10.45,1.21,15.82,15.82,0,0,0-7.24,5.3,13.78,13.78,0,0,0-2.67,8.5Z"/><path class="cls-2" d="M599.78,147.9a27.61,27.61,0,0,1-14.48-3.83,27.9,27.9,0,0,1-10.13-10.44,29.88,29.88,0,0,1-3.72-14.9,29.33,29.33,0,0,1,3.83-15,28.12,28.12,0,0,1,10.44-10.44,30.73,30.73,0,0,1,29.75,0,28.21,28.21,0,0,1,10.39,10.44,30.11,30.11,0,0,1,3.94,15l-3.25,2.52A26.47,26.47,0,0,1,623,134.84a26.11,26.11,0,0,1-9.55,9.55A26.74,26.74,0,0,1,599.78,147.9Zm.84-7.34a20.91,20.91,0,0,0,10.87-2.84A20.49,20.49,0,0,0,619,129.9a24,24,0,0,0,0-22.4,21,21,0,0,0-7.55-7.82,21.77,21.77,0,0,0-21.68,0,21.28,21.28,0,0,0-7.66,7.82,23.58,23.58,0,0,0,0,22.4,20.78,20.78,0,0,0,18.47,10.66Zm25.09,6.82a4.1,4.1,0,0,1-2.94-1.1,3.82,3.82,0,0,1-1.15-2.89V125.44l2-8.29,6.19,1.58v24.66a3.82,3.82,0,0,1-1.15,2.89A4.1,4.1,0,0,1,625.71,147.38Z"/><path class="cls-2" d="M976.33,146.38a30,30,0,0,1-15.06-3.72A26.77,26.77,0,0,1,951,132.32a30.32,30.32,0,0,1-3.73-15.12A31.54,31.54,0,0,1,950.77,102a26.28,26.28,0,0,1,24-14.12,26.19,26.19,0,0,1,13.91,3.62,24.53,24.53,0,0,1,9.18,10,31.75,31.75,0,0,1,3.26,14.59,3.49,3.49,0,0,1-1.05,2.67,3.78,3.78,0,0,1-2.73,1H952.71v-6.72h45.45l-4.52,3.26a24,24,0,0,0-2.2-10.92,18,18,0,0,0-6.56-7.56,18.33,18.33,0,0,0-10.13-2.73A19.27,19.27,0,0,0,964.26,98a18.92,18.92,0,0,0-7,7.82,25.26,25.26,0,0,0-2.47,11.38,22.74,22.74,0,0,0,2.78,11.34,20.57,20.57,0,0,0,7.61,7.77,21.57,21.57,0,0,0,11.13,2.83,23.52,23.52,0,0,0,7.61-1.31,18.6,18.6,0,0,0,6.14-3.31,4.21,4.21,0,0,1,2.62-1,3.66,3.66,0,0,1,2.52.78,3.91,3.91,0,0,1,1.42,2.73,3,3,0,0,1-1.21,2.52,28.44,28.44,0,0,1-8.82,4.88A30,30,0,0,1,976.33,146.38Z"/><path class="cls-2" d="M921.77,71.78C901,34.61,850.38,33.54,844.68,33.54h-.41c-35.25.52-59.63,21.08-67.93,29.24a1.12,1.12,0,0,1-.22.16,5.16,5.16,0,0,1-7.31-2A53.27,53.27,0,0,0,756.9,45.11C746.8,36,732.77,31,717.4,31A69.48,69.48,0,0,0,697,34c-27.58,8.61-40.27,34.05-44.44,44.59-9.66,24.39-5.52,54.81,10.84,84.48a1,1,0,0,0,1.75-.8,144.52,144.52,0,0,1-6.61-23.06C655.3,122.8,650.39,98,663.92,76.7c5.77-9.06,18.24-24.72,37-27.9,1.5-.37,3-.66,4.56-.88a48.52,48.52,0,0,1,7-.51,57.3,57.3,0,0,1,26.31,6.71c15.8,8.21,23.71,22.47,27.34,31.62a1,1,0,0,0,1.56.34c12.27-11.57,36-28.94,68-28.94H836c10.13,0,33.85.13,51.26,17.9,10.26,10.48,16,24.56,16.91,41.85,1.52,27.48-13.56,47.42-22.57,59.33a129.82,129.82,0,0,1-36.86,33,1,1,0,0,0,.79,1.75,117.05,117.05,0,0,0,47-28.25c13.69-13.68,25.56-32.53,31.75-50.42C929.82,116.54,933.78,93.26,921.77,71.78Z"/></g></g></svg>