<svg xmlns="http://www.w3.org/2000/svg" xmlns:xlink="http://www.w3.org/1999/xlink" viewBox="0 0 1082 482"><defs><style>.cls-1{stroke:#00a7bf;stroke-miterlimit:10;stroke-width:2px;fill:url(#Degradado_sin_nombre_57);}.cls-2{fill:#009574;}</style><linearGradient id="Degradado_sin_nombre_57" x1="122.03" y1="49.47" x2="928.43" y2="418.11" gradientTransform="translate(1082 482) rotate(-180)" gradientUnits="userSpaceOnUse"><stop offset="0" stop-color="#f0ffd4"/><stop offset="0.26" stop-color="#f1ffd7"/><stop offset="0.45" stop-color="#f5ffe1"/><stop offset="0.62" stop-color="#fafff1"/><stop offset="0.7" stop-color="#fefffb"/><stop offset="0.7" stop-color="#fff"/><stop offset="1" stop-color="#f0ffd4"/></linearGradient></defs><title>encuentrame_home_hero</title><g id="Capa_2" data-name="Capa 2"><g id="Capa_1-2" data-name="Capa 1"><rect class="cls-1" x="1" y="1" width="1080" height="480" rx="12" transform="translate(1082 482) rotate(180)"/><path class="cls-2" d="M95.05,184a31,31,0,0,1-15.59-3.85,27.77,27.77,0,0,1-10.64-10.7A31.29,31.29,0,0,1,65,153.79,32.79,32.79,0,0,1,68.6,138.1a27.22,27.22,0,0,1,24.82-14.6,27.1,27.1,0,0,1,14.38,3.74,25.43,25.43,0,0,1,9.51,10.37,32.93,32.93,0,0,1,3.36,15.1,3.65,3.65,0,0,1-1.08,2.77,3.94,3.94,0,0,1-2.83,1H70.61v-6.95h47L113,152.92a24.91,24.91,0,0,0-2.28-11.29,18.62,18.62,0,0,0-6.78-7.82A19,19,0,0,0,93.42,131a20,20,0,0,0-10.86,2.93A19.55,19.55,0,0,0,75.34,142a26.26,26.26,0,0,0-2.55,11.78,23.44,23.44,0,0,0,2.87,11.73,21.27,21.27,0,0,0,7.88,8,22.31,22.31,0,0,0,11.51,2.93,24.05,24.05,0,0,0,7.87-1.36,18.91,18.91,0,0,0,6.35-3.42,4.47,4.47,0,0,1,2.72-1,3.77,3.77,0,0,1,2.6.81,4.05,4.05,0,0,1,1.47,2.83,3.13,3.13,0,0,1-1.25,2.6,29.51,29.51,0,0,1-9.12,5.05A31.14,31.14,0,0,1,95.05,184Z"/><path class="cls-2" d="M139,183.44a4.18,4.18,0,0,1-3.09-1.14,4,4,0,0,1-1.14-3v-51A3.93,3.93,0,0,1,139,124a4,4,0,0,1,3,1.14,4.18,4.18,0,0,1,1.14,3.09v51a3.91,3.91,0,0,1-4.13,4.13Zm46.7,0a4.08,4.08,0,0,1-3-1.2,4,4,0,0,1-1.2-2.93V151.08A21.66,21.66,0,0,0,178.93,140a16.33,16.33,0,0,0-7-6.51,22.1,22.1,0,0,0-9.94-2.17,21.77,21.77,0,0,0-9.6,2.06,17,17,0,0,0-6.79,5.64,13.89,13.89,0,0,0-2.5,8.15h-6A23.38,23.38,0,0,1,140.87,135a24.84,24.84,0,0,1,9.23-8.47,26.66,26.66,0,0,1,12.81-3.09,29.19,29.19,0,0,1,13.79,3.2,23.53,23.53,0,0,1,9.61,9.39q3.54,6.2,3.53,15.1v28.23a4.08,4.08,0,0,1-4.12,4.13Z"/><path class="cls-2" d="M234.8,184a29.34,29.34,0,0,1-15.26-4A28.76,28.76,0,0,1,209,169.21a30.86,30.86,0,0,1-3.86-15.42,32.15,32.15,0,0,1,3.69-15.52,28.13,28.13,0,0,1,10.1-10.81,27.52,27.52,0,0,1,14.77-4,28.68,28.68,0,0,1,12.22,2.6,27.79,27.79,0,0,1,9.82,7.82,3,3,0,0,1,.87,2.77,4.25,4.25,0,0,1-1.84,2.55,3.33,3.33,0,0,1-2.66.6,4.31,4.31,0,0,1-2.55-1.57,20.22,20.22,0,0,0-15.86-7.17,19.27,19.27,0,0,0-17.86,11,25.88,25.88,0,0,0-2.55,11.72A24.33,24.33,0,0,0,216,165.41a20.29,20.29,0,0,0,7.6,8,21.38,21.38,0,0,0,11.19,2.93,25.13,25.13,0,0,0,7.76-1.14,17.65,17.65,0,0,0,6.25-3.53,4.76,4.76,0,0,1,2.71-1.19,3.55,3.55,0,0,1,2.61.86,4.31,4.31,0,0,1,1.46,2.72,2.94,2.94,0,0,1-1,2.61Q246.63,184,234.8,184Z"/><path class="cls-2" d="M298.75,184.09a29.22,29.22,0,0,1-13.79-3.2,23.62,23.62,0,0,1-9.61-9.4q-3.53-6.18-3.53-15.09V128.17A4.08,4.08,0,0,1,276,124a4.15,4.15,0,0,1,3,1.19,4,4,0,0,1,1.2,2.94V156.4a21.66,21.66,0,0,0,2.55,11.08,16.28,16.28,0,0,0,6.95,6.51,22.09,22.09,0,0,0,9.93,2.17,21.81,21.81,0,0,0,9.61-2.06,17.2,17.2,0,0,0,6.79-5.65,13.93,13.93,0,0,0,2.5-8.14h6A24.24,24.24,0,0,1,311.57,181,26.57,26.57,0,0,1,298.75,184.09Zm23.89-.65a4,4,0,0,1-3-1.14,4.18,4.18,0,0,1-1.14-3.1v-51a3.91,3.91,0,0,1,4.12-4.13,4.22,4.22,0,0,1,3,1.14,3.94,3.94,0,0,1,1.2,3v51a4.07,4.07,0,0,1-1.2,3.1A4.22,4.22,0,0,1,322.64,183.44Z"/><path class="cls-2" d="M373.35,184a31,31,0,0,1-15.58-3.85,27.77,27.77,0,0,1-10.64-10.7,31.29,31.29,0,0,1-3.86-15.64,32.8,32.8,0,0,1,3.64-15.69,27.45,27.45,0,0,1,10-10.69,27.73,27.73,0,0,1,14.76-3.91,27.14,27.14,0,0,1,14.39,3.74,25.33,25.33,0,0,1,9.5,10.37,32.81,32.81,0,0,1,3.37,15.1,3.62,3.62,0,0,1-1.09,2.77,3.9,3.9,0,0,1-2.82,1H348.92v-6.95h47l-4.67,3.36A24.91,24.91,0,0,0,389,141.63a18.64,18.64,0,0,0-6.79-7.82A19,19,0,0,0,371.72,131a20,20,0,0,0-10.85,2.93,19.57,19.57,0,0,0-7.23,8.09,26.26,26.26,0,0,0-2.55,11.78A23.44,23.44,0,0,0,354,165.52a21.32,21.32,0,0,0,7.87,8,22.36,22.36,0,0,0,11.51,2.93,24.11,24.11,0,0,0,7.88-1.36,19,19,0,0,0,6.35-3.42,4.44,4.44,0,0,1,2.71-1,3.8,3.8,0,0,1,2.61.81,4,4,0,0,1,1.46,2.83,3.12,3.12,0,0,1-1.24,2.6A29.45,29.45,0,0,1,384,182,31.14,31.14,0,0,1,373.35,184Z"/><path class="cls-2" d="M417.33,183.44a4.18,4.18,0,0,1-3.09-1.14,4,4,0,0,1-1.14-3v-51a3.93,3.93,0,0,1,4.23-4.23,4,4,0,0,1,3,1.14,4.18,4.18,0,0,1,1.14,3.09v51a3.91,3.91,0,0,1-4.13,4.13Zm46.69,0a4.11,4.11,0,0,1-3-1.2,4,4,0,0,1-1.19-2.93V151.08A21.66,21.66,0,0,0,457.24,140a16.33,16.33,0,0,0-6.95-6.51,22.13,22.13,0,0,0-9.94-2.17,21.81,21.81,0,0,0-9.61,2.06A17.17,17.17,0,0,0,424,139a14,14,0,0,0-2.49,8.15h-6a23.48,23.48,0,0,1,3.7-12.22,24.77,24.77,0,0,1,9.23-8.47,26.61,26.61,0,0,1,12.81-3.09,29.19,29.19,0,0,1,13.79,3.2,23.59,23.59,0,0,1,9.61,9.39,30.09,30.09,0,0,1,3.53,15.1v28.23a4.08,4.08,0,0,1-4.13,4.13Z"/><path class="cls-2" d="M482.81,133.49a3.83,3.83,0,0,1-2.72-1A3.4,3.4,0,0,1,479,129.9a3.53,3.53,0,0,1,1.08-2.66,3.83,3.83,0,0,1,2.72-1H510.5a3.81,3.81,0,0,1,2.71,1,3.5,3.5,0,0,1,1.09,2.66,3.37,3.37,0,0,1-1.09,2.56,3.81,3.81,0,0,1-2.71,1Zm27,49.95a19.31,19.31,0,0,1-17.38-10.16,22,22,0,0,1-2.6-10.8v-53.1a4.23,4.23,0,0,1,1.14-3,3.91,3.91,0,0,1,3-1.19,4.09,4.09,0,0,1,4.24,4.23v53.1a12.81,12.81,0,0,0,3.26,9.07,10.86,10.86,0,0,0,8.36,3.53h2.93a3.64,3.64,0,0,1,2.82,1.19,4.33,4.33,0,0,1,1.09,3,3.79,3.79,0,0,1-1.31,3,4.74,4.74,0,0,1-3.25,1.14Z"/><path class="cls-2" d="M534.39,183.44a3.78,3.78,0,0,1-4.13-4.13V128.17a4.13,4.13,0,1,1,8.25,0v51.14a3.77,3.77,0,0,1-4.12,4.13Zm-.65-36.6a25.35,25.35,0,0,1,3.52-12.05,23.76,23.76,0,0,1,8.37-8.36,22.06,22.06,0,0,1,11.45-3,17,17,0,0,1,7.71,1.41q2.72,1.41,2.06,4.13a3.18,3.18,0,0,1-1.46,2.17,4.52,4.52,0,0,1-2.5.43l-3.31-.21a24.12,24.12,0,0,0-10.81,1.24,16.48,16.48,0,0,0-7.49,5.49,14.27,14.27,0,0,0-2.77,8.79Z"/><path class="cls-2" d="M601.82,184a28.48,28.48,0,0,1-25.46-14.77,30.86,30.86,0,0,1-3.86-15.42,30.4,30.4,0,0,1,4-15.52,29.2,29.2,0,0,1,10.81-10.81,30.21,30.21,0,0,1,15.42-4,29.89,29.89,0,0,1,15.36,4,29.19,29.19,0,0,1,10.75,10.81,31.18,31.18,0,0,1,4.08,15.52l-3.37,2.61a27.36,27.36,0,0,1-3.64,14.06,26.83,26.83,0,0,1-9.88,9.88A27.58,27.58,0,0,1,601.82,184Zm.87-7.6a21.66,21.66,0,0,0,11.24-2.93,21.33,21.33,0,0,0,7.82-8.09,24.86,24.86,0,0,0,0-23.19,21.92,21.92,0,0,0-7.82-8.09,22.59,22.59,0,0,0-22.43,0,22.11,22.11,0,0,0-7.92,8.09,24.41,24.41,0,0,0,0,23.19,21.51,21.51,0,0,0,7.92,8.09A21.73,21.73,0,0,0,602.69,176.38Zm25.95,7.06a4.23,4.23,0,0,1-3-1.14,3.93,3.93,0,0,1-1.19-3V160.74l2.06-8.58,6.41,1.63v25.52a3.94,3.94,0,0,1-1.2,3A4.23,4.23,0,0,1,628.64,183.44Z"/><path class="cls-2" d="M991.41,182.41a31,31,0,0,1-15.59-3.86,27.74,27.74,0,0,1-10.64-10.69,31.34,31.34,0,0,1-3.85-15.64A32.63,32.63,0,0,1,965,136.53a27.45,27.45,0,0,1,10-10.7,27.83,27.83,0,0,1,14.77-3.91,27,27,0,0,1,14.38,3.75,25.36,25.36,0,0,1,9.51,10.37,32.92,32.92,0,0,1,3.36,15.09,3.65,3.65,0,0,1-1.08,2.77,3.94,3.94,0,0,1-2.83,1H967v-7h47l-4.67,3.37a24.89,24.89,0,0,0-2.28-11.29,18.56,18.56,0,0,0-6.78-7.82,19,19,0,0,0-10.48-2.82,19.93,19.93,0,0,0-10.86,2.93,19.49,19.49,0,0,0-7.22,8.09,26.23,26.23,0,0,0-2.55,11.78A23.46,23.46,0,0,0,972,164a21.17,21.17,0,0,0,7.88,8,22.22,22.22,0,0,0,11.51,2.93,24.35,24.35,0,0,0,7.87-1.35,19.27,19.27,0,0,0,6.35-3.42,4.42,4.42,0,0,1,2.72-1,3.83,3.83,0,0,1,2.6.82,4.05,4.05,0,0,1,1.47,2.82,3.14,3.14,0,0,1-1.25,2.61,29.51,29.51,0,0,1-9.12,5.05A31.14,31.14,0,0,1,991.41,182.41Z"/><path class="cls-2" d="M935,105.22C913.47,66.76,861.1,65.65,855.2,65.65h-.43c-36.46.54-61.69,21.81-70.28,30.25a1.37,1.37,0,0,1-.23.17A5.34,5.34,0,0,1,776.7,94a54.93,54.93,0,0,0-12.33-16.33c-10.44-9.42-25-14.6-40.86-14.6a71.55,71.55,0,0,0-21.1,3.14c-28.53,8.9-41.66,35.23-46,46.13-10,25.24-5.72,56.7,11.21,87.41a1,1,0,0,0,1.81-.83A149.29,149.29,0,0,1,662.63,175c-3.37-17-8.45-42.71,5.55-64.71,6-9.37,18.87-25.58,38.26-28.87,1.55-.38,3.13-.68,4.72-.91a50.41,50.41,0,0,1,7.28-.52A59.14,59.14,0,0,1,745.66,87C762,95.44,770.19,110.2,774,119.66a1,1,0,0,0,1.61.36c12.7-12,37.28-29.94,70.35-29.94h.35c10.48,0,35,.13,53,18.52,10.62,10.84,16.51,25.41,17.5,43.3,1.57,28.42-14,49.06-23.35,61.38A134.48,134.48,0,0,1,855.3,247.4a1,1,0,0,0,.82,1.81A121,121,0,0,0,904.8,220c14.17-14.15,26.45-33.65,32.85-52.17C943.28,151.53,947.39,127.45,935,105.22Z"/></g></g></svg>