<svg id="Capa_1" data-name="Capa 1" xmlns="http://www.w3.org/2000/svg" viewBox="0 0 150 35"><defs><style>.cls-1{fill:#009874;}</style></defs><title>logo_pos_trans</title><path class="cls-1" d="M4.86,22.7A4.48,4.48,0,0,1,2.41,22,4.54,4.54,0,0,1,.74,20.18a5.82,5.82,0,0,1-.61-2.71A6.23,6.23,0,0,1,.7,14.74a4.7,4.7,0,0,1,1.58-1.85,4,4,0,0,1,2.33-.68,3.9,3.9,0,0,1,2.26.65,4.21,4.21,0,0,1,1.49,1.8,6.07,6.07,0,0,1,.53,2.62.64.64,0,0,1-.17.48.57.57,0,0,1-.44.18H1V16.73h7.4l-.74.58a4.76,4.76,0,0,0-.36-2A3.13,3.13,0,0,0,6.26,14a2.79,2.79,0,0,0-1.65-.49A2.92,2.92,0,0,0,2.9,14a3.31,3.31,0,0,0-1.14,1.4,5.1,5.1,0,0,0-.4,2,4.43,4.43,0,0,0,.45,2,3.57,3.57,0,0,0,1.24,1.39,3.27,3.27,0,0,0,1.81.51,3.4,3.4,0,0,0,1.24-.23,2.92,2.92,0,0,0,1-.6.65.65,0,0,1,.43-.17.56.56,0,0,1,.41.14.73.73,0,0,1,.23.49.59.59,0,0,1-.2.45,4.64,4.64,0,0,1-1.43.88A4.54,4.54,0,0,1,4.86,22.7Z"/><path class="cls-1" d="M11.78,22.61a.63.63,0,0,1-.49-.2.73.73,0,0,1-.18-.52V13a.77.77,0,0,1,.18-.54.63.63,0,0,1,.49-.2.62.62,0,0,1,.47.2.77.77,0,0,1,.18.54v8.85a.73.73,0,0,1-.18.52A.62.62,0,0,1,11.78,22.61Zm7.34,0a.59.59,0,0,1-.47-.21.72.72,0,0,1-.19-.51V17a4.17,4.17,0,0,0-.4-1.92A2.73,2.73,0,0,0,17,13.94a3.22,3.22,0,0,0-1.56-.38,3.15,3.15,0,0,0-1.51.36,2.81,2.81,0,0,0-1.07,1,2.63,2.63,0,0,0-.39,1.42h-.94a4.36,4.36,0,0,1,.58-2.12,3.94,3.94,0,0,1,1.45-1.47,3.89,3.89,0,0,1,2-.54,4.15,4.15,0,0,1,2.17.56,4,4,0,0,1,1.51,1.62A5.67,5.67,0,0,1,19.77,17v4.9a.72.72,0,0,1-.19.51A.57.57,0,0,1,19.12,22.61Z"/><path class="cls-1" d="M26.84,22.7a4.34,4.34,0,0,1-2.4-.68,4.79,4.79,0,0,1-1.65-1.88,5.71,5.71,0,0,1-.61-2.67,6,6,0,0,1,.58-2.7,4.71,4.71,0,0,1,1.59-1.87,4,4,0,0,1,2.32-.69,4.12,4.12,0,0,1,1.92.45A4.41,4.41,0,0,1,30.14,14a.58.58,0,0,1,.14.48.8.8,0,0,1-.3.44.44.44,0,0,1-.41.1.63.63,0,0,1-.4-.27,3.08,3.08,0,0,0-2.5-1.24A2.83,2.83,0,0,0,25,14a3.33,3.33,0,0,0-1.13,1.39,4.86,4.86,0,0,0-.4,2,4.5,4.5,0,0,0,.43,2,3.4,3.4,0,0,0,1.19,1.4,3.12,3.12,0,0,0,1.76.5,3.63,3.63,0,0,0,1.22-.19,2.85,2.85,0,0,0,1-.62.69.69,0,0,1,.42-.2.47.47,0,0,1,.41.15.7.7,0,0,1,.23.47.5.5,0,0,1-.16.45A4.2,4.2,0,0,1,26.84,22.7Z"/><path class="cls-1" d="M36.9,22.72a4.24,4.24,0,0,1-2.17-.55,3.91,3.91,0,0,1-1.51-1.63,5.67,5.67,0,0,1-.55-2.62V13a.76.76,0,0,1,.18-.51.63.63,0,0,1,.94,0A.72.72,0,0,1,34,13v4.9a4,4,0,0,0,.4,1.92A2.67,2.67,0,0,0,35.48,21a3.22,3.22,0,0,0,1.56.38A3.15,3.15,0,0,0,38.55,21a2.89,2.89,0,0,0,1.07-1A2.62,2.62,0,0,0,40,18.6H41a4.66,4.66,0,0,1-.59,2.12,4.06,4.06,0,0,1-1.44,1.47A4,4,0,0,1,36.9,22.72Zm3.76-.11a.6.6,0,0,1-.47-.2.77.77,0,0,1-.18-.54V13a.73.73,0,0,1,.18-.52.6.6,0,0,1,.47-.2.66.66,0,0,1,.48.2.73.73,0,0,1,.18.52v8.85a.77.77,0,0,1-.18.54A.66.66,0,0,1,40.66,22.61Z"/><path class="cls-1" d="M48.63,22.7A4.48,4.48,0,0,1,46.18,22a4.54,4.54,0,0,1-1.67-1.85,5.94,5.94,0,0,1-.61-2.71,6.09,6.09,0,0,1,.58-2.73,4.59,4.59,0,0,1,1.57-1.85,4,4,0,0,1,2.33-.68,3.9,3.9,0,0,1,2.26.65,4.21,4.21,0,0,1,1.49,1.8,6.07,6.07,0,0,1,.53,2.62.64.64,0,0,1-.17.48.57.57,0,0,1-.44.18H44.79V16.73h7.4l-.74.58a4.76,4.76,0,0,0-.36-2A3.13,3.13,0,0,0,50,14a2.79,2.79,0,0,0-1.65-.49,2.92,2.92,0,0,0-1.71.51,3.31,3.31,0,0,0-1.14,1.4,5.1,5.1,0,0,0-.4,2,4.31,4.31,0,0,0,.46,2,3.47,3.47,0,0,0,1.23,1.39,3.27,3.27,0,0,0,1.81.51,3.4,3.4,0,0,0,1.24-.23,2.92,2.92,0,0,0,1-.6.65.65,0,0,1,.43-.17.56.56,0,0,1,.41.14.73.73,0,0,1,.23.49.59.59,0,0,1-.2.45,4.64,4.64,0,0,1-1.43.88A4.54,4.54,0,0,1,48.63,22.7Z"/><path class="cls-1" d="M55.55,22.61a.65.65,0,0,1-.49-.2.73.73,0,0,1-.18-.52V13a.77.77,0,0,1,.18-.54.65.65,0,0,1,.49-.2.62.62,0,0,1,.47.2.77.77,0,0,1,.18.54v8.85a.73.73,0,0,1-.18.52A.62.62,0,0,1,55.55,22.61Zm7.34,0a.59.59,0,0,1-.47-.21.72.72,0,0,1-.19-.51V17a4.17,4.17,0,0,0-.4-1.92,2.73,2.73,0,0,0-1.1-1.13,3.22,3.22,0,0,0-1.56-.38,3.15,3.15,0,0,0-1.51.36,2.81,2.81,0,0,0-1.07,1,2.63,2.63,0,0,0-.39,1.42h-.94a4.36,4.36,0,0,1,.58-2.12,3.94,3.94,0,0,1,1.45-1.47,3.89,3.89,0,0,1,2-.54,4.15,4.15,0,0,1,2.17.56A4,4,0,0,1,63,14.37,5.67,5.67,0,0,1,63.54,17v4.9a.72.72,0,0,1-.19.51A.57.57,0,0,1,62.89,22.61Z"/><path class="cls-1" d="M65.85,13.94a.57.57,0,0,1-.43-.18.62.62,0,0,1-.17-.44.65.65,0,0,1,.17-.46.57.57,0,0,1,.43-.18H70.2a.57.57,0,0,1,.43.18.65.65,0,0,1,.17.46.62.62,0,0,1-.17.44.57.57,0,0,1-.43.18Zm4.25,8.67a2.87,2.87,0,0,1-1.61-.47,3.27,3.27,0,0,1-1.12-1.29A4.06,4.06,0,0,1,67,19V9.76a.77.77,0,0,1,.18-.53A.58.58,0,0,1,67.61,9a.63.63,0,0,1,.48.21.77.77,0,0,1,.18.53V19a2.35,2.35,0,0,0,.52,1.58,1.65,1.65,0,0,0,1.31.61h.46a.57.57,0,0,1,.45.21.79.79,0,0,1,.17.52.67.67,0,0,1-.21.52.73.73,0,0,1-.51.2Z"/><path class="cls-1" d="M74,22.61a.62.62,0,0,1-.48-.19.77.77,0,0,1-.17-.53V13a.78.78,0,0,1,.17-.53.7.7,0,0,1,1,0,.78.78,0,0,1,.17.53v8.87a.77.77,0,0,1-.17.53A.62.62,0,0,1,74,22.61Zm-.1-6.35a4.73,4.73,0,0,1,.55-2.09,4,4,0,0,1,1.32-1.45,3.24,3.24,0,0,1,1.8-.53,2.49,2.49,0,0,1,1.21.24.63.63,0,0,1,.33.72.64.64,0,0,1-.23.38.72.72,0,0,1-.4.07l-.52,0a3.47,3.47,0,0,0-1.7.22,2.7,2.7,0,0,0-1.18,1,2.67,2.67,0,0,0-.43,1.53Z"/><path class="cls-1" d="M84.57,22.7A4.24,4.24,0,0,1,82.21,22a4.79,4.79,0,0,1-1.65-1.88A5.83,5.83,0,0,1,80,17.47a5.66,5.66,0,0,1,.63-2.7,4.73,4.73,0,0,1,1.7-1.87,4.59,4.59,0,0,1,4.84,0,4.86,4.86,0,0,1,1.69,1.87,5.91,5.91,0,0,1,.64,2.7l-.53.45a5.17,5.17,0,0,1-.57,2.44,4.44,4.44,0,0,1-1.56,1.71A4,4,0,0,1,84.57,22.7Zm.13-1.32a3.15,3.15,0,0,0,1.77-.5,3.53,3.53,0,0,0,1.23-1.41,4.71,4.71,0,0,0,0-4,3.57,3.57,0,0,0-1.23-1.4,3.26,3.26,0,0,0-3.53,0,3.59,3.59,0,0,0-1.24,1.4,4.62,4.62,0,0,0,0,4,3.55,3.55,0,0,0,1.24,1.41A3.17,3.17,0,0,0,84.7,21.38Zm4.08,1.23a.62.62,0,0,1-.47-.2.69.69,0,0,1-.19-.52V18.67l.32-1.49,1,.29v4.42a.69.69,0,0,1-.19.52A.63.63,0,0,1,88.78,22.61Z"/><path class="cls-1" d="M145.84,22.43a4.46,4.46,0,0,1-2.45-.67,4.56,4.56,0,0,1-1.68-1.85,6,6,0,0,1-.6-2.72,6.15,6.15,0,0,1,.57-2.72,4.65,4.65,0,0,1,1.58-1.86,4.06,4.06,0,0,1,2.32-.68,4,4,0,0,1,2.26.65,4.36,4.36,0,0,1,1.5,1.8,6.25,6.25,0,0,1,.53,2.62.69.69,0,0,1-.17.48.61.61,0,0,1-.45.18H142v-1.2h7.4l-.74.58a4.57,4.57,0,0,0-.35-2,3.18,3.18,0,0,0-1.07-1.36,2.82,2.82,0,0,0-1.65-.49,2.92,2.92,0,0,0-1.71.51,3.24,3.24,0,0,0-1.13,1.41,4.89,4.89,0,0,0-.4,2,4.44,4.44,0,0,0,.45,2A3.48,3.48,0,0,0,144,20.62a3.22,3.22,0,0,0,1.81.51,3.45,3.45,0,0,0,1.24-.24,2.8,2.8,0,0,0,1-.59.72.72,0,0,1,.43-.18.59.59,0,0,1,.41.14.7.7,0,0,1,.23.49.58.58,0,0,1-.19.46,4.61,4.61,0,0,1-1.44.87A4.55,4.55,0,0,1,145.84,22.43Z"/><path class="cls-1" d="M122.19,33.75c-.38.2-.19.83.22.74a19.33,19.33,0,0,0,10.14-5.87c4-4.43,8.44-13.38,4.82-20.53S124.83,1,124.34,1a16.28,16.28,0,0,0-11.29,5.3.34.34,0,0,1-.56-.1,10,10,0,0,0-2-3,10,10,0,0,0-10.2-2.1C95.06,2.85,93,8.5,92.72,9.38c-2,5.7-.43,12.94,4,19.43.27.39.81,0,.59-.44a27.64,27.64,0,0,1-2.77-8c-.51-2.83-1.29-7.2.81-10.84.38-.66,2.41-4.17,5.71-4.78h0a6.33,6.33,0,0,1,.72-.16A8,8,0,0,1,107,5.63a10.46,10.46,0,0,1,4.37,5.82.34.34,0,0,0,.58.15c1.5-1.63,5.5-5.39,11.09-5.37,1.62,0,5.31,0,8,3.06a11.62,11.62,0,0,1,2.62,7.18c.24,4.74-2.13,8.2-3.58,10.31A21.75,21.75,0,0,1,122.19,33.75Z"/></svg>