<svg id="Capa_1" data-name="Capa 1" xmlns="http://www.w3.org/2000/svg" xmlns:xlink="http://www.w3.org/1999/xlink" viewBox="0 0 1500 1920"><defs><style>.cls-1,.cls-18,.cls-36,.cls-4{fill:none;}.cls-2,.cls-20,.cls-29,.cls-34,.cls-5,.cls-54,.cls-55,.cls-64,.cls-67,.cls-71,.cls-72{fill:#4d4d4d;}.cls-26,.cls-28,.cls-3,.cls-57,.cls-63,.cls-70{fill:#fff;}.cls-18,.cls-19,.cls-25,.cls-3,.cls-36,.cls-4,.cls-70{stroke:#4d4d4d;}.cls-18,.cls-19,.cls-25,.cls-3,.cls-36,.cls-54,.cls-70{stroke-miterlimit:10;}.cls-18,.cls-25,.cls-3{stroke-width:2px;}.cls-4{stroke-linejoin:round;stroke-dasharray:12 12;}.cls-36,.cls-4,.cls-54{stroke-width:3px;}.cls-26,.cls-34,.cls-49,.cls-5,.cls-55,.cls-64,.cls-71,.cls-72{font-size:21px;}.cls-20,.cls-26,.cls-29,.cls-34,.cls-49,.cls-5,.cls-55,.cls-57,.cls-63,.cls-64,.cls-67,.cls-71,.cls-72{font-family:MyriadPro-Regular, Myriad Pro;}.cls-6{letter-spacing:-0.01em;}.cls-7{letter-spacing:-0.01em;}.cls-8{letter-spacing:-0.01em;}.cls-9{letter-spacing:0em;}.cls-10{letter-spacing:0em;}.cls-11{letter-spacing:0em;}.cls-12{letter-spacing:0em;}.cls-13{letter-spacing:-0.01em;}.cls-14{letter-spacing:-0.01em;}.cls-15{letter-spacing:-0.01em;}.cls-16{letter-spacing:-0.05em;}.cls-17{letter-spacing:-0.01em;}.cls-19,.cls-53{fill:#e6e6e6;}.cls-20{font-size:18.17px;}.cls-21{letter-spacing:-0.03em;}.cls-22{letter-spacing:-0.01em;}.cls-23{letter-spacing:0em;}.cls-24{letter-spacing:0em;}.cls-25,.cls-49{fill:#f2f2f2;}.cls-27{letter-spacing:-0.05em;}.cls-29{font-size:18px;}.cls-30{letter-spacing:0em;}.cls-31{letter-spacing:0em;}.cls-32{letter-spacing:-0.09em;}.cls-33{letter-spacing:-0.01em;}.cls-34{letter-spacing:-0.04em;}.cls-35{letter-spacing:0em;}.cls-36{stroke-dasharray:11.95 11.95;}.cls-37{letter-spacing:0em;}.cls-38{letter-spacing:0.01em;}.cls-39,.cls-71{letter-spacing:0em;}.cls-40{letter-spacing:0em;}.cls-41{letter-spacing:-0.03em;}.cls-42{letter-spacing:0em;}.cls-43{letter-spacing:-0.01em;}.cls-44{letter-spacing:0.01em;}.cls-45{letter-spacing:0.02em;}.cls-46{letter-spacing:-0.01em;}.cls-47{letter-spacing:0.02em;}.cls-48{fill:#999;}.cls-50,.cls-55{letter-spacing:-0.01em;}.cls-51{letter-spacing:0em;}.cls-52{fill:#666;}.cls-54{stroke:#e6e6e6;stroke-linecap:round;}.cls-56{letter-spacing:0.01em;}.cls-57,.cls-63,.cls-67{font-size:34px;}.cls-57{letter-spacing:-0.03em;}.cls-58{letter-spacing:-0.01em;}.cls-59{letter-spacing:0em;}.cls-60{letter-spacing:0em;}.cls-61{letter-spacing:-0.01em;}.cls-62{letter-spacing:0em;}.cls-64{letter-spacing:0.01em;}.cls-65{clip-path:url(#clip-path);}.cls-66{letter-spacing:-0.03em;}.cls-68{letter-spacing:0.02em;}.cls-69{letter-spacing:-0.01em;}.cls-72{letter-spacing:-0.02em;}.cls-73{clip-path:url(#clip-path-2);}</style><clipPath id="clip-path"><rect class="cls-1" x="451.99" y="1660.06" width="48" height="48"/></clipPath><clipPath id="clip-path-2"><rect class="cls-1" x="186.51" y="1235.49" width="48" height="48"/></clipPath></defs><title>web_arquitecture</title><rect class="cls-2" x="19.75" y="192.5" width="1120" height="1711" rx="12"/><rect class="cls-3" x="65.5" y="954.21" width="1060" height="769.39" rx="12"/><rect class="cls-4" x="1.5" y="5.64" width="1497" height="1908.71" rx="12"/><rect class="cls-3" x="64.88" y="204.43" width="1060" height="736.07" rx="12"/><text class="cls-5" transform="translate(417.82 89.35)">user</text><path class="cls-2" d="M433.8,44.52a12,12,0,1,0-12-12A12,12,0,0,0,433.8,44.52Zm8.4,3h-1.57a16.32,16.32,0,0,1-13.67,0H425.4a12.6,12.6,0,0,0-12.6,12.6V64a4.5,4.5,0,0,0,4.5,4.5h33a4.51,4.51,0,0,0,4.5-4.5v-3.9A12.6,12.6,0,0,0,442.2,47.52Z"/><text class="cls-5" transform="translate(544.49 106.29)">b<tspan class="cls-6" x="11.95" y="0">r</tspan><tspan class="cls-7" x="18.61" y="0">o</tspan><tspan class="cls-8" x="29.99" y="0">w</tspan><tspan x="45.32" y="0">ser</tspan></text><text class="cls-5" transform="translate(460.64 123.98)">encue<tspan class="cls-9" x="53.68" y="0">n</tspan><tspan class="cls-10" x="65.25" y="0">t</tspan><tspan class="cls-11" x="72.2" y="0">r</tspan><tspan class="cls-12" x="78.96" y="0">am</tspan><tspan class="cls-13" x="106.6" y="0">e</tspan><tspan x="116.86" y="0">.o</tspan><tspan class="cls-14" x="132.74" y="0">r</tspan><tspan class="cls-15" x="139.44" y="0">g</tspan><tspan x="150.86" y="0">.</tspan><tspan class="cls-15" x="155.21" y="0">x</tspan><tspan x="164.62" y="0">ela</tspan><tspan class="cls-16" x="190.22" y="0">r</tspan><tspan x="195.97" y="0">.</tspan><tspan class="cls-17" x="200.32" y="0">t</tspan><tspan class="cls-12" x="207.14" y="0">ech</tspan></text><path class="cls-18" d="M595.19,158.92,597,160.7a1.93,1.93,0,0,1,0,2.72L581.37,179a1.92,1.92,0,0,1-2.73,0L563,163.42a1.93,1.93,0,0,1,0-2.72l1.79-1.78a1.92,1.92,0,0,1,2.75,0l9.23,9.68V145.54a1.92,1.92,0,0,1,1.92-1.93h2.58a1.92,1.92,0,0,1,1.92,1.93v23.09l9.23-9.68A1.91,1.91,0,0,1,595.19,158.92Z"/><path class="cls-2" d="M602.29,33.18H557.71a5.15,5.15,0,0,0-5.14,5.15V76a5.14,5.14,0,0,0,5.14,5.14h44.58A5.14,5.14,0,0,0,607.43,76V38.33A5.15,5.15,0,0,0,602.29,33.18Zm0,42.22a.65.65,0,0,1-.65.64H558.36a.65.65,0,0,1-.65-.64V50.33h44.58Z"/><path class="cls-18" d="M496.75,42l1.78-1.78a1.92,1.92,0,0,1,2.73,0l15.62,15.61a1.93,1.93,0,0,1,0,2.72L501.26,74.16a1.92,1.92,0,0,1-2.73,0l-1.78-1.78a1.94,1.94,0,0,1,0-2.76l9.68-9.22H483.37a1.92,1.92,0,0,1-1.93-1.93V55.9A1.92,1.92,0,0,1,483.37,54h23.09l-9.68-9.22A1.93,1.93,0,0,1,496.75,42Z"/><rect class="cls-19" x="554.37" y="-247.03" width="72" height="1000" rx="8" transform="translate(843.34 -337.4) rotate(90)"/><text class="cls-20" transform="translate(232.59 268.79) scale(1.13 1)">UFW <tspan class="cls-21" x="39.82" y="0">F</tspan><tspan x="48.2" y="0">i</tspan><tspan class="cls-22" x="52.45" y="0">r</tspan><tspan x="58.21" y="0">e</tspan><tspan class="cls-23" x="67.31" y="0">w</tspan><tspan class="cls-24" x="80.6" y="0">all</tspan></text><path class="cls-25" d="M189,234.14c0-1.93-2.82-2.66-4.06-1.06-11.36,14.68,4.79,15.35,4.79,22.48,0,2.89-2.67,5.23-6,5.19s-5.8-2.41-5.8-5.26v-6.94c0-1.76-2.42-2.61-3.8-1.34a15.35,15.35,0,0,0-5,11c0,8.58,7.9,15.57,17.61,15.57s17.62-7,17.62-15.57c0-13.81-15.41-15.65-15.41-24Z"/><text class="cls-26" transform="translate(167.92 1868.89) scale(1.16 1)"><tspan class="cls-27">A</tspan><tspan x="11.74" y="0">WS Elastic Cloud</tspan></text><path class="cls-28" d="M89.38,1846.88c-.09,2.83,1.32,4.08,1.36,4.88a1,1,0,0,1-.52.78l-1.59,1.12a1.29,1.29,0,0,1-.71.24s-1,.23-2.55-3.2a9.82,9.82,0,0,1-7.82,3.68c-2,.11-7.54-1.15-7.26-7-.2-4.78,4.25-7.75,8.86-7.5a25.49,25.49,0,0,1,5.86.79v-2c.34-3.31-1.83-5.87-5.59-5.49a14.83,14.83,0,0,0-5.72,1.27,2.26,2.26,0,0,1-1.35.35c-.92,0-.54-2.68-.36-3,.65-.8,4.47-2.3,8.23-2.27a9.56,9.56,0,0,1,7,2.15,8.77,8.77,0,0,1,2.21,6.54v8.65Zm-10.79,4c4-.06,5.76-2.5,6.15-3.81a12.38,12.38,0,0,0,.26-3.42,21.91,21.91,0,0,0-4.94-.61c-1.89-.14-5.35.71-5.21,4A3.47,3.47,0,0,0,78.59,1850.93Zm21.34,2.88a1.44,1.44,0,0,1-1.58-1.3L92.13,1832a4.75,4.75,0,0,1-.24-1.07.57.57,0,0,1,.48-.65h2.78a1.43,1.43,0,0,1,1.57,1.29l4.46,17.58,4.14-17.58a1.41,1.41,0,0,1,1.59-1.28h2.15a1.39,1.39,0,0,1,1.58,1.3l4.17,17.81,4.61-17.81a1.46,1.46,0,0,1,1.58-1.3h2.46c.11,0,.77-.1.66,1.07-.06.23.42-1.33-6.59,21.22a1.43,1.43,0,0,1-1.58,1.29h-2.34a1.43,1.43,0,0,1-1.58-1.34l-4.14-17.12-4.09,17.1a1.44,1.44,0,0,1-1.59,1.34H99.93Zm34.15.7a16.9,16.9,0,0,1-7.17-1.54,1.59,1.59,0,0,1-1-1.48v-1.35c0-1.05.77-.86,1.1-.73a17.27,17.27,0,0,0,3.6,1.2c4.58.94,6.59-.29,7.08-.56a2.88,2.88,0,0,0,.66-4.37c-1.31-1.09-1.94-1.13-6.64-2.62-.58-.16-5.45-1.7-5.46-6.54-.08-3.52,3.12-7,8.68-7,1.58,0,5.79.51,6.93,2a1.45,1.45,0,0,1,.24.88v1.26c0,.55-.2.83-.6.83-1-.11-2.67-1.39-6.14-1.34-.86,0-5,.11-4.8,3.12-.05,2.36,3.32,3.25,3.71,3.36,4.55,1.36,6.07,1.59,7.88,3.69a6.76,6.76,0,0,1,.54,6.92c-2.38,4.68-8.54,4.3-8.64,4.3Zm5,13.09c-8.75,6.46-21.44,9.9-32.28,9.9a58.62,58.62,0,0,1-39.62-15.08c-.81-.73-.09-1.74.9-1.18a79.6,79.6,0,0,0,39.57,10.5,78.55,78.55,0,0,0,30.16-6.18c1.47-.63,2.72,1,1.27,2Zm3.64-4.15c-1.12-1.44-7.4-.68-10.21-.34-.85.1-1-.64-.23-1.18,5-3.52,13.22-2.51,14.17-1.33s-.26,9.42-4.94,13.35c-.72.61-1.41.29-1.09-.51C141.49,1870.78,143.86,1864.89,142.74,1863.45Z"/><rect class="cls-19" x="554.37" y="1245.06" width="72" height="1060" rx="8" transform="translate(2365.42 1184.69) rotate(90)"/><text class="cls-29" transform="translate(146 1791.89) scale(1.16 1)">Ubu<tspan class="cls-30" x="31.81" y="0">n</tspan><tspan class="cls-31" x="41.72" y="0">tu 20.04 </tspan><tspan class="cls-32" x="105.89" y="0">L</tspan><tspan class="cls-33" x="112.8" y="0">T</tspan><tspan x="121.64" y="0">S</tspan></text><path class="cls-2" d="M105.39,1751.06a24,24,0,1,0,24,24A24,24,0,0,0,105.39,1751.06Zm5.1,9a3.08,3.08,0,1,1,1.13,4.21A3.08,3.08,0,0,1,110.49,1760.06Zm-20.64,18.08a3.09,3.09,0,1,1,3.08-3.08A3.08,3.08,0,0,1,89.85,1778.14Zm2.72.3a4.34,4.34,0,0,0,0-6.76A13.28,13.28,0,0,1,98,1764l2.3,3.84a8.8,8.8,0,0,0,0,14.4l-2.3,3.83A13.31,13.31,0,0,1,92.57,1778.44Zm22.13,12.75a3.09,3.09,0,1,1,1.13-4.22A3.08,3.08,0,0,1,114.7,1791.19Zm0-6.73a4.34,4.34,0,0,0-5.86,3.39,13.39,13.39,0,0,1-9.36-.91l2.18-3.9a8.81,8.81,0,0,0,12.48-7.2l4.46.07a13.34,13.34,0,0,1-3.9,8.55Zm-.57-10.19a8.81,8.81,0,0,0-12.48-7.2l-2.18-3.9a13.39,13.39,0,0,1,9.36-.91,4.35,4.35,0,0,0,5.86,3.39,13.18,13.18,0,0,1,3.89,8.56l-4.45.06Z"/><text class="cls-34" transform="translate(1303.4 602.76)">F<tspan class="cls-12" x="9.28" y="0">a</tspan><tspan class="cls-17" x="19.4" y="0">c</tspan><tspan class="cls-12" x="28.69" y="0">ebook API</tspan></text><path class="cls-2" d="M1294.81,586.63a24.15,24.15,0,1,0-27.92,23.85V593.61h-6.13v-7h6.13v-5.32c0-6,3.6-9.4,9.12-9.4a36.64,36.64,0,0,1,5.41.48v5.93h-3.05c-3,0-3.93,1.87-3.93,3.78v4.53h6.69l-1.07,7h-5.62v16.87A24.15,24.15,0,0,0,1294.81,586.63Z"/><text class="cls-5" transform="translate(1303.26 724.29)"><tspan class="cls-13">A</tspan><tspan x="12.6" y="0">uthe</tspan><tspan class="cls-35" x="53.3" y="0">n</tspan><tspan x="64.87" y="0">tic</tspan><tspan class="cls-9" x="86.14" y="0">a</tspan><tspan class="cls-8" x="96.18" y="0">t</tspan><tspan x="103" y="0">e</tspan></text><path class="cls-2" d="M1273,715.72l-3.2,3a1.75,1.75,0,0,1-1.51.74h-3.75v3.75a2.25,2.25,0,0,1-2.25,2.25h-3.75v3.75a2.25,2.25,0,0,1-2.25,2.25h-7.5a2.25,2.25,0,0,1-2.25-2.25v-7.5a2.21,2.21,0,0,1,.66-1.59L1262.3,705A16.46,16.46,0,1,1,1273,715.72Zm8.79-15.72a3.75,3.75,0,1,0-3.75-3.75A3.75,3.75,0,0,0,1281.77,700Z"/><rect class="cls-36" x="1208.25" y="523.75" width="280" height="280" rx="12"/><text class="cls-5" transform="translate(1304.67 1043.76)"><tspan class="cls-37">G</tspan><tspan x="13.67" y="0">oogle </tspan><tspan class="cls-38" x="68.4" y="0">M</tspan><tspan x="85.41" y="0">aps</tspan><tspan x="43.37" y="25.2">API</tspan></text><path class="cls-2" d="M1283.35,1025.9c0,5.2-7,14.46-10,18.19a1.7,1.7,0,0,1-2.82,0c-3-3.73-10-13-10-18.19a11.42,11.42,0,1,1,22.84,0Zm-11.42,3a3.81,3.81,0,1,0-3.81-3.81A3.81,3.81,0,0,0,1271.93,1029Zm13.1,2.65c0-.12.09-.23.14-.36l11-4.41a2.28,2.28,0,0,1,3.13,2.12v25.77a2.31,2.31,0,0,1-1.43,2.13l-13.8,5.51v-28.8C1284.45,1032.9,1284.75,1032.25,1285,1031.6Zm-26.2,0c.28.65.58,1.3.92,2v23.92l-12.1,4.85a2.32,2.32,0,0,1-3.13-2.12v-25.78a2.22,2.22,0,0,1,1.43-2.12l11.66-4.66a18.82,18.82,0,0,0,1.22,3.95Zm16.89,14.4a80.71,80.71,0,0,0,5.35-7.25v23.73l-18.28-5.22v-18.51a80.71,80.71,0,0,0,5.35,7.25,4.75,4.75,0,0,0,7.58,0Z"/><text class="cls-5" transform="translate(1292.31 1171.71)"><tspan class="cls-39">R</tspan><tspan x="11.38" y="0">et</tspan><tspan class="cls-39" x="28.85" y="0">r</tspan><tspan x="35.8" y="0">ie</tspan><tspan class="cls-6" x="51.24" y="0">v</tspan><tspan x="61.13" y="0">e l</tspan><tspan class="cls-40" x="81.06" y="0">a</tspan><tspan class="cls-10" x="91.1" y="0">titude</tspan><tspan x="10.11" y="25.2">and lon</tspan><tspan class="cls-8" x="76.32" y="25.2">g</tspan><tspan x="87.94" y="25.2">itude</tspan></text><path class="cls-2" d="M1257.34,1195c-4.91-6-15.82-20.66-15.82-28.88a18,18,0,0,1,36.09,0c0,8.22-11,22.84-15.82,28.88a2.83,2.83,0,0,1-4.45,0Zm2.22-22.86a6,6,0,1,0-6-6A6,6,0,0,0,1259.56,1172.17Z"/><rect class="cls-36" x="1208.25" y="990.25" width="280" height="280" rx="12"/><path class="cls-2" d="M820.66,762.18a2.67,2.67,0,0,1,.19,3.77l-8,8.89a2.26,2.26,0,0,1-1.91.78,2.09,2.09,0,0,1-2-.78l-4.44-4.44a2.54,2.54,0,0,1,0-3.68,2.67,2.67,0,0,1,3.77,0l2.45,2.46,6.13-6.8a2.67,2.67,0,0,1,3.76-.2Zm0,17.79a2.66,2.66,0,0,1,.19,3.76l-8,8.89a2.29,2.29,0,0,1-1.91.78,2.09,2.09,0,0,1-2-.78l-4.44-4.44a2.54,2.54,0,0,1,0-3.68,2.69,2.69,0,0,1,3.77,0l2.45,2.45,6.13-6.8a2.67,2.67,0,0,1,3.76-.18Zm8-11.36a3.56,3.56,0,0,1,3.56-3.56H857.1a3.56,3.56,0,0,1,0,7.12H832.21a3.56,3.56,0,0,1-3.56-3.56Zm0,17.78a3.56,3.56,0,0,1,3.56-3.56H857.1a3.56,3.56,0,0,1,0,7.11H832.21A3.55,3.55,0,0,1,828.65,786.39Zm-7.11,17.78a3.56,3.56,0,0,1,3.56-3.56h32a3.56,3.56,0,0,1,0,7.11h-32A3.55,3.55,0,0,1,821.54,804.17Zm-17.78,0a5.34,5.34,0,1,1,5.34,5.33A5.34,5.34,0,0,1,803.76,804.17Z"/><text class="cls-5" transform="translate(702.86 783.29)"><tspan class="cls-41">F</tspan><tspan x="9.58" y="0">o</tspan><tspan class="cls-42" x="21.1" y="0">r</tspan><tspan class="cls-12" x="28.06" y="0">m</tspan><tspan x="-42.08" y="25.2">lost/ </tspan><tspan class="cls-43" x="1.32" y="25.2">f</tspan><tspan x="7.18" y="25.2">ound pet</tspan></text><path class="cls-18" d="M1015.53,632l1.78-1.78a1.91,1.91,0,0,1,2.72,0l15.62,15.61a1.91,1.91,0,0,1,0,2.72L1020,664.16a1.91,1.91,0,0,1-2.72,0l-1.78-1.78a1.93,1.93,0,0,1,0-2.76l9.68-9.22h-23.09a1.92,1.92,0,0,1-1.93-1.93V645.9a1.92,1.92,0,0,1,1.93-1.93h23.09l-9.68-9.22A1.91,1.91,0,0,1,1015.53,632Z"/><path class="cls-18" d="M533.46,490.54l-15.62-15.62a1.91,1.91,0,0,1,0-2.72l1.78-1.78a1.93,1.93,0,0,1,2.76,0l9.22,9.68v-33l-9.22,9.68a1.91,1.91,0,0,1-2.76,0L517.84,455a1.91,1.91,0,0,1,0-2.72l15.61-15.62a1.91,1.91,0,0,1,2.72,0l15.62,15.62a1.91,1.91,0,0,1,0,2.72L550,456.8a1.93,1.93,0,0,1-2.76,0L538,447.09v33l9.22-9.68a1.91,1.91,0,0,1,2.76,0l1.78,1.78a1.91,1.91,0,0,1,0,2.72l-15.61,15.62A1.91,1.91,0,0,1,533.46,490.54Z"/><path class="cls-2" d="M480.78,401.94h-48a3.42,3.42,0,0,1-3.43-3.43v-6.86a3.42,3.42,0,0,1,3.43-3.42h48a3.42,3.42,0,0,1,3.42,3.42v6.86A3.42,3.42,0,0,1,480.78,401.94Zm-5.15-9.43a2.57,2.57,0,1,0,2.57,2.57A2.57,2.57,0,0,0,475.63,392.51Zm-6.85,0a2.57,2.57,0,1,0,2.57,2.57A2.57,2.57,0,0,0,468.78,392.51Zm12,26.57h-48a3.42,3.42,0,0,1-3.43-3.43V408.8a3.42,3.42,0,0,1,3.43-3.43h48a3.42,3.42,0,0,1,3.42,3.43v6.85A3.42,3.42,0,0,1,480.78,419.08Zm-5.15-9.43a2.58,2.58,0,1,0,2.57,2.58A2.58,2.58,0,0,0,475.63,409.65Zm-6.85,0a2.58,2.58,0,1,0,2.57,2.58A2.58,2.58,0,0,0,468.78,409.65Zm12,26.58h-48a3.43,3.43,0,0,1-3.43-3.43v-6.86a3.43,3.43,0,0,1,3.43-3.43h48a3.43,3.43,0,0,1,3.42,3.43v6.86A3.43,3.43,0,0,1,480.78,436.23Zm-5.15-9.43a2.57,2.57,0,1,0,2.57,2.57A2.57,2.57,0,0,0,475.63,426.8Zm-6.85,0a2.57,2.57,0,1,0,2.57,2.57A2.57,2.57,0,0,0,468.78,426.8Z"/><text class="cls-5" transform="translate(499.61 414.81)">NGINX <tspan class="cls-44" x="62.66" y="0">S</tspan><tspan x="73.14" y="0">e</tspan><tspan class="cls-45" x="83.66" y="0">r</tspan><tspan class="cls-6" x="91.05" y="0">v</tspan><tspan x="100.95" y="0">er</tspan></text><path class="cls-18" d="M646,540.05l15.62,15.62a1.91,1.91,0,0,0,2.72,0l1.79-1.78a2,2,0,0,0,0-2.76l-9.69-9.22H877.17a1,1,0,0,1,1,1v17.8L868.94,551a1.91,1.91,0,0,0-2.75,0l-1.79,1.78a1.94,1.94,0,0,0,0,2.73L880,571.13a1.94,1.94,0,0,0,2.73,0l15.62-15.62a1.94,1.94,0,0,0,0-2.73L896.57,551a1.93,1.93,0,0,0-2.75,0l-9.23,9.68V537.48a2,2,0,0,0-2-2H656.41l9.69-9.22a1.93,1.93,0,0,0,0-2.76l-1.79-1.78a1.91,1.91,0,0,0-2.72,0L646,537.33A1.91,1.91,0,0,0,646,540.05Z"/><text class="cls-5" transform="translate(730.94 565)">POST <tspan class="cls-46" x="50.88" y="0">r</tspan><tspan x="57.54" y="0">equest</tspan></text><path class="cls-18" d="M422.36,540.05l-15.62,15.62a1.91,1.91,0,0,1-2.72,0l-1.79-1.78a2,2,0,0,1,0-2.76l9.69-9.22H191.19a1,1,0,0,0-1,1v17.8l9.23-9.68a1.91,1.91,0,0,1,2.75,0l1.79,1.78a1.94,1.94,0,0,1,0,2.73l-15.61,15.62a1.94,1.94,0,0,1-2.73,0L170,555.51a1.94,1.94,0,0,1,0-2.73l1.79-1.78a1.93,1.93,0,0,1,2.75,0l9.23,9.68V537.48a2,2,0,0,1,2-2H412l-9.69-9.22a1.93,1.93,0,0,1,0-2.76l1.79-1.78a1.91,1.91,0,0,1,2.72,0l15.62,15.61A1.91,1.91,0,0,1,422.36,540.05Z"/><text class="cls-5" transform="translate(216.39 565)">G<tspan class="cls-47" x="13.57" y="0">E</tspan><tspan x="24.23" y="0">T </tspan><tspan class="cls-46" x="39.12" y="0">r</tspan><tspan class="cls-12" x="45.78" y="0">equest</tspan></text><text class="cls-5" transform="translate(496.98 529.81)">Landing page<tspan x="0.55" y="25.2">HTML, CSS, JS</tspan></text><path class="cls-2" d="M464.81,542.86l0,0-3.07-2.71,3.07-2.71a.82.82,0,0,0,.08-1.16l0,0-1.63-1.74a.82.82,0,0,0-1.17,0l-5.4,5.07a.82.82,0,0,0,0,1.2l5.4,5.07a.86.86,0,0,0,.57.23.82.82,0,0,0,.6-.27l1.63-1.74a.82.82,0,0,0,0-1.16Zm20.62-23.55-7.86-7.86a4.49,4.49,0,0,0-3.18-1.32H455.26a4.51,4.51,0,0,0-4.5,4.5v39a4.51,4.51,0,0,0,4.5,4.5h27a4.5,4.5,0,0,0,4.5-4.5V522.5a4.51,4.51,0,0,0-1.32-3.19ZM474.76,515l7.13,7.13h-7.13Zm7.49,38.63h-27v-39h15v9.75a2.24,2.24,0,0,0,2.25,2.25h9.74Zm-11.84-23.44a.84.84,0,0,0-1,.57l-5.12,17.63a.81.81,0,0,0,.56,1l2.29.66a.81.81,0,0,0,1-.56l5.13-17.64a.82.82,0,0,0-.57-1Zm2.29,7.21,0,0,3.08,2.71-3.08,2.71a.82.82,0,0,0-.07,1.16l0,0,1.63,1.74a.82.82,0,0,0,1.16,0l5.41-5.07a.83.83,0,0,0,0-1.2l-5.41-5.07a.81.81,0,0,0-1.16,0l-1.63,1.74A.82.82,0,0,0,472.7,537.4Z"/><rect class="cls-48" x="835.57" y="607.22" width="86.35" height="86.35" rx="4" transform="translate(-202.52 811.87) rotate(-45)"/><text class="cls-49" transform="translate(846.25 647.68)"><tspan class="cls-50">L<tspan class="cls-51" x="9.62" y="0">ogged</tspan></tspan><tspan x="20.95" y="25.2">in?</tspan></text><circle class="cls-52" cx="879.28" cy="731.5" r="12"/><path class="cls-53" d="M888,725.41a1.29,1.29,0,0,1,0,1.83L877.6,737.59a1.29,1.29,0,0,1-1.83,0l-5.17-5.18a1.29,1.29,0,0,1,1.83-1.82l4.22,4.25,9.48-9.43a1.27,1.27,0,0,1,1.82,0Z"/><circle class="cls-52" cx="973.28" cy="647.5" r="12"/><line class="cls-54" x1="967.28" y1="641.5" x2="979.28" y2="653.5"/><line class="cls-54" x1="979.28" y1="641.5" x2="967.28" y2="653.5"/><text class="cls-55" transform="translate(1042.13 704.29)">L<tspan class="cls-10" x="9.62" y="0">o</tspan><tspan class="cls-8" x="21.15" y="0">g</tspan><tspan class="cls-12" x="32.76" y="0">in</tspan></text><path class="cls-2" d="M1068.74,662.72l-3.21,3a1.72,1.72,0,0,1-1.5.74h-3.75v3.75a2.25,2.25,0,0,1-2.25,2.25h-3.75v3.75a2.25,2.25,0,0,1-2.25,2.25h-7.5a2.24,2.24,0,0,1-2.25-2.25v-7.5a2.24,2.24,0,0,1,.65-1.59L1058.05,652a16.69,16.69,0,0,1-.77-5,16.47,16.47,0,1,1,11.46,15.72Zm8.79-15.72a3.75,3.75,0,1,0-3.75-3.75A3.75,3.75,0,0,0,1077.53,647Z"/><path class="cls-18" d="M937.28,787.05l15.62,15.62a1.91,1.91,0,0,0,2.72,0l1.79-1.78a2,2,0,0,0,0-2.76l-9.69-9.22h133.24a2,2,0,0,0,2-2V743.54a1.93,1.93,0,0,0-1.93-1.93h-2.57a1.92,1.92,0,0,0-1.93,1.93v38.94H947.69l9.69-9.22a1.93,1.93,0,0,0,0-2.76l-1.79-1.78a1.91,1.91,0,0,0-2.72,0l-15.62,15.61A1.91,1.91,0,0,0,937.28,787.05Z"/><text class="cls-5" transform="translate(157.6 621.81)"><tspan class="cls-56">I</tspan><tspan class="cls-12" x="5.23" y="0">mag</tspan><tspan class="cls-13" x="44.6" y="0">e</tspan><tspan x="54.87" y="0">, </tspan><tspan class="cls-8" x="63.67" y="0">c</tspan><tspan x="72.95" y="0">omme</tspan><tspan class="cls-9" x="130.03" y="0">n</tspan><tspan class="cls-10" x="141.6" y="0">ts</tspan><tspan x="30.91" y="25.2">GPS </tspan><tspan class="cls-35" x="70.45" y="25.2">v</tspan><tspan class="cls-12" x="80.47" y="25.2">alues</tspan></text><path class="cls-2" d="M133.28,597.5v12h12Zm-3,12v-12h-16.5a4.49,4.49,0,0,0-4.5,4.5v39a4.5,4.5,0,0,0,4.5,4.5h27a4.5,4.5,0,0,0,4.5-4.5V612.5H133.36A3,3,0,0,1,130.28,609.5Z"/><text class="cls-57" transform="translate(54.62 802.17) rotate(-90)">F<tspan class="cls-58" x="15.67" y="0">r</tspan><tspan class="cls-59" x="26.45" y="0">o</tspan><tspan class="cls-60" x="45.12" y="0">n</tspan><tspan class="cls-61" x="63.85" y="0">t</tspan><tspan class="cls-62" x="74.9" y="0">end</tspan></text><text class="cls-63" transform="translate(54.62 1380.71) rotate(-90)">Backend</text><text class="cls-5" transform="translate(931.34 914.75) rotate(-90)">On submit</text><text class="cls-5" transform="translate(365.14 851.73) rotate(-90)">On <tspan class="cls-6" x="30.58" y="0">r</tspan><tspan x="37.23" y="0">equest</tspan></text><rect class="cls-19" x="395.99" y="1553" width="160" height="160" rx="12"/><text class="cls-64" transform="translate(449.56 1655.29)">M<tspan class="cls-10" x="17.03" y="0">ySQL</tspan></text><text class="cls-5" transform="translate(465.12 1573.29)">DB</text><g class="cls-65"><path class="cls-48" d="M498.44,1682.68a6.08,6.08,0,0,0-2.6.38c-.2.08-.52.08-.55.33s.13.28.22.43a2.87,2.87,0,0,0,.7.81,9.66,9.66,0,0,0,.85.62c.52.32,1.11.51,1.62.84.29.18.59.42.88.62s.24.28.43.35v0c-.09-.12-.12-.3-.21-.43l-.4-.39a6.36,6.36,0,0,0-1.39-1.35c-.43-.29-1.37-.7-1.54-1.19l0,0a4.9,4.9,0,0,0,.92-.21c.46-.12.87-.09,1.34-.21.21,0,.43-.12.64-.19v-.12c-.24-.24-.42-.56-.67-.79a18.48,18.48,0,0,0-2.2-1.64c-.42-.27-1-.44-1.4-.67-.16-.08-.43-.12-.52-.26a5.26,5.26,0,0,1-.55-1c-.39-.77-.76-1.54-1.09-2.33a15.1,15.1,0,0,0-.68-1.53,13.57,13.57,0,0,0-5.17-5,6.3,6.3,0,0,0-1.72-.54l-1-.06a4.81,4.81,0,0,1-.62-.47c-.76-.48-2.72-1.52-3.28-.14-.36.87.53,1.72.84,2.16a6.53,6.53,0,0,1,.68,1c.09.23.12.47.21.71a17.67,17.67,0,0,0,.7,1.8,5.23,5.23,0,0,0,.49.82c.11.15.29.22.34.46a3.89,3.89,0,0,0-.31,1,5.93,5.93,0,0,0,.39,4.5c.21.33.72,1.07,1.4.78s.47-1,.64-1.67c0-.16,0-.26.1-.37v0c.19.38.37.73.55,1.11a7.36,7.36,0,0,0,1.73,1.79c.32.24.57.66,1,.8v0h0a1.87,1.87,0,0,0-.3-.26,6.57,6.57,0,0,1-.7-.8,17,17,0,0,1-1.5-2.44c-.22-.42-.4-.87-.58-1.28-.08-.16-.08-.4-.21-.48a4.56,4.56,0,0,0-.64.9,7.63,7.63,0,0,0-.38,2c-.05,0,0,0-.05,0-.43-.1-.58-.55-.74-.92a5.85,5.85,0,0,1-.12-3.57c.1-.28.5-1.16.34-1.43s-.35-.4-.5-.61a6.42,6.42,0,0,1-.48-.85c-.32-.75-.48-1.58-.82-2.33a7.16,7.16,0,0,0-.67-1,6.51,6.51,0,0,1-.74-1c-.06-.15-.16-.39,0-.55a.22.22,0,0,1,.19-.18c.17-.14.67,0,.84.12a6.81,6.81,0,0,1,1.32.67c.19.13.39.39.63.45h.28c.43.1.91,0,1.31.15a8.82,8.82,0,0,1,1.93.92,11.9,11.9,0,0,1,4.17,4.57c.16.31.23.59.37.91.28.66.63,1.33.91,2a8.29,8.29,0,0,0,1,1.79c.2.28,1,.43,1.36.57a8.44,8.44,0,0,1,.92.38c.46.28.91.6,1.34.91C497.73,1682.08,498.4,1682.41,498.44,1682.68Zm-18.77,11.71a2.92,2.92,0,0,1-1,2.31,4.07,4.07,0,0,1-2.77.9,5.57,5.57,0,0,1-3.14-1l.47-1a5.38,5.38,0,0,0,2.38.65,2.48,2.48,0,0,0,1.57-.44,1.55,1.55,0,0,0,.6-1.23c0-.66-.46-1.22-1.3-1.69s-2.33-1.31-2.33-1.31a2.66,2.66,0,0,1-1.26-2.36,2.73,2.73,0,0,1,.94-2.17,3.57,3.57,0,0,1,2.44-.83,5.09,5.09,0,0,1,2.8.82l-.43,1a5.19,5.19,0,0,0-2.12-.46,1.86,1.86,0,0,0-1.31.41,1.37,1.37,0,0,0-.5,1c0,.65.47,1.22,1.33,1.7s2.38,1.34,2.38,1.34a2.61,2.61,0,0,1,1.29,2.33Zm3.32.85a6.8,6.8,0,0,1-.68-3.48c0-2.78.85-4.18,2.54-4.18a2.16,2.16,0,0,1,2,1,6.79,6.79,0,0,1,.67,3.45q0,4.21-2.54,4.22a2.16,2.16,0,0,1-2-1Zm6.58,2.48-2-1a4.81,4.81,0,0,0,.51-.5,6.76,6.76,0,0,0,1.3-4.51q0-5.49-4.31-5.49a4.1,4.1,0,0,0-3.3,1.4,6.77,6.77,0,0,0-1.3,4.49,6.56,6.56,0,0,0,1.15,4.28,3.94,3.94,0,0,0,3.17,1.23,5.08,5.08,0,0,0,1.45-.2l2.65,1.54.72-1.24Zm6.64-.27H491v-11.06h1.77v9.7h3.49Zm-24.65-8.16c-.75,4.09-1.75,7.07-3,8.92-1,1.43-2,2.15-3.17,2.15a3.24,3.24,0,0,1-1.13-.28v-1a4.45,4.45,0,0,0,.77.05,1.89,1.89,0,0,0,1.3-.44,1.62,1.62,0,0,0,.59-1.21,8.39,8.39,0,0,0-.46-1.89l-2-6.31h1.82l1.45,4.72a6.2,6.2,0,0,1,.41,2.25,30.39,30.39,0,0,0,1.67-7Zm-8,8.16h-1.86q-.07-4.42-.54-8.82h0l-2.82,8.82h-1.41l-2.8-8.82h0q-.33,4.41-.39,8.82H452q.17-5.9.82-11.06h2.3l2.67,8.13h0l2.7-8.13h2.19c.48,4,.77,7.72.85,11.06Zm21.27-26.39a2.11,2.11,0,0,0-.55.07v0h0a4.53,4.53,0,0,0,.43.55l.3.64,0,0a.74.74,0,0,0,.28-.67,2.54,2.54,0,0,1-.16-.28c-.08-.13-.25-.2-.36-.3Z"/></g><path class="cls-2" d="M497,1596v4.28c0,3.78-9.41,6.86-21,6.86s-21-3.08-21-6.86V1596c0-3.78,9.4-6.86,21-6.86S497,1592.22,497,1596Zm0,9.64v9.64c0,3.78-9.41,6.86-21,6.86s-21-3.08-21-6.86v-9.64c4.51,3.11,12.77,4.55,21,4.55S492.48,1608.75,497,1605.64Zm0,15v9.64c0,3.78-9.41,6.86-21,6.86s-21-3.08-21-6.86v-9.64c4.51,3.11,12.77,4.55,21,4.55S492.48,1623.75,497,1620.64Z"/><path class="cls-18" d="M477.23,1539a1.91,1.91,0,0,1-2.72,0l-15.62-15.62a1.91,1.91,0,0,1,0-2.72l1.78-1.79a1.94,1.94,0,0,1,2.76,0l9.22,9.68v-78.24a2,2,0,0,1,2-2h112.5V1418.5l-9.22,9.67a1.91,1.91,0,0,1-2.75,0l-1.79-1.78a1.94,1.94,0,0,1,0-2.73L589,1408.07a1.94,1.94,0,0,1,2.73,0l15.62,15.62a1.94,1.94,0,0,1,0,2.73l-1.79,1.78a1.93,1.93,0,0,1-2.75,0l-9.23-9.68v29.83h112.5a2,2,0,0,1,2,2v78.24l9.22-9.68a1.92,1.92,0,0,1,2.76,0l1.78,1.79a1.91,1.91,0,0,1,0,2.72L706.23,1539a1.91,1.91,0,0,1-2.72,0l-15.62-15.62a1.91,1.91,0,0,1,0-2.72l1.78-1.79a1.94,1.94,0,0,1,2.76,0l9.22,9.68v-73.81H479.08v73.81l9.22-9.68a1.92,1.92,0,0,1,2.76,0l1.78,1.79a1.91,1.91,0,0,1,0,2.72Z"/><rect class="cls-19" x="624.75" y="1553" width="160" height="160" rx="12"/><text class="cls-5" transform="translate(666.56 1655.29)"><tspan class="cls-66">F</tspan><tspan x="9.68" y="0">ile s</tspan><tspan class="cls-17" x="42.84" y="0">t</tspan><tspan x="49.66" y="0">o</tspan><tspan class="cls-11" x="61.19" y="0">r</tspan><tspan x="67.96" y="0">age</tspan></text><path class="cls-2" d="M700.51,1596.86l0,0-3.07-2.71,3.07-2.71a.82.82,0,0,0,.08-1.16l0,0-1.63-1.74a.82.82,0,0,0-1.17,0l-5.4,5.07a.82.82,0,0,0,0,1.2l5.4,5.07a.86.86,0,0,0,.57.23.82.82,0,0,0,.6-.27l1.63-1.74a.82.82,0,0,0,0-1.16Zm20.62-23.55-7.86-7.86a4.49,4.49,0,0,0-3.18-1.32H691a4.51,4.51,0,0,0-4.5,4.5v39a4.51,4.51,0,0,0,4.5,4.5h27a4.5,4.5,0,0,0,4.5-4.5V1576.5a4.55,4.55,0,0,0-1.32-3.19ZM710.46,1569l7.13,7.13h-7.13Zm7.49,38.63H691v-39h15v9.75a2.24,2.24,0,0,0,2.25,2.25H718Zm-11.84-23.44a.84.84,0,0,0-1,.57L700,1602.39a.81.81,0,0,0,.56,1l2.29.66a.81.81,0,0,0,1-.56l5.13-17.64a.82.82,0,0,0-.57-1Zm2.29,7.21,0,0,3.08,2.71-3.08,2.71a.82.82,0,0,0-.07,1.16l0,0,1.63,1.74a.82.82,0,0,0,1.16,0l5.41-5.07a.83.83,0,0,0,0-1.2l-5.41-5.07a.81.81,0,0,0-1.16,0l-1.63,1.74A.82.82,0,0,0,708.4,1591.4Z"/><rect class="cls-19" x="555.87" y="-167.5" width="69" height="1000" rx="8" transform="translate(922.87 -257.87) rotate(90)"/><text class="cls-5" transform="translate(232.59 346.89) scale(0.99 1)">SSL/TLS</text><path class="cls-2" d="M186.8,311.93a20.57,20.57,0,1,0,20.58,20.57A20.57,20.57,0,0,0,186.8,311.93Zm-9.42,12.86a9.43,9.43,0,1,1,18.85,0v2.57a.85.85,0,0,1-.86.86h-1.72a.85.85,0,0,1-.86-.86v-2.57c0-8-12-8-12,0v2.57a.84.84,0,0,1-.86.86h-1.71a.85.85,0,0,1-.86-.86v-2.57Zm23.14,19.71a1.72,1.72,0,0,1-1.72,1.71h-24a1.72,1.72,0,0,1-1.71-1.71V330.79a1.72,1.72,0,0,1,1.71-1.72h24a1.73,1.73,0,0,1,1.72,1.72Zm-24-13.29v12.86a.42.42,0,0,1-.43.43h-.86a.42.42,0,0,1-.43-.43V331.21a.42.42,0,0,1,.43-.42h.86A.42.42,0,0,1,176.52,331.21Zm13.71,4.72a3.41,3.41,0,0,1-1.71,2.94v3.06a.86.86,0,0,1-.87.86h-1.71a.85.85,0,0,1-.86-.86v-3.06a3.42,3.42,0,1,1,5.15-2.94ZM186.8,308.5a24,24,0,1,0,24,24A24,24,0,0,0,186.8,308.5Zm0,46.29a22.29,22.29,0,1,1,22.29-22.29A22.31,22.31,0,0,1,186.8,354.79Z"/><path class="cls-18" d="M1201,676l-15.62,15.62a1.91,1.91,0,0,1-2.72,0l-1.78-1.78a1.93,1.93,0,0,1,0-2.76l9.68-9.22h-33l9.68,9.22a1.91,1.91,0,0,1,0,2.76l-1.78,1.78a1.91,1.91,0,0,1-2.72,0L1147.11,676a1.91,1.91,0,0,1,0-2.72l15.62-15.62a1.91,1.91,0,0,1,2.72,0l1.78,1.78a1.93,1.93,0,0,1,0,2.76l-9.68,9.22h33l-9.68-9.22a1.91,1.91,0,0,1,0-2.76l1.78-1.78a1.91,1.91,0,0,1,2.72,0L1201,673.25A1.91,1.91,0,0,1,1201,676Z"/><rect class="cls-19" x="90.37" y="998" width="1000" height="397.5" rx="12"/><text class="cls-67" transform="translate(120.71 1036.29)">vi<tspan class="cls-68" x="24.31" y="0">r</tspan><tspan x="36.24" y="0">tuale</tspan><tspan class="cls-69" x="107.68" y="0">n</tspan><tspan x="126.1" y="0">v</tspan></text><rect class="cls-70" x="523.54" y="927.4" width="72" height="836" rx="8" transform="translate(1904.93 785.86) rotate(90)"/><text class="cls-71" transform="translate(257.14 1363.14)">P<tspan class="cls-10" x="11.26" y="0">ython</tspan></text><path class="cls-48" d="M233.63,1339.45c-.83-3.31-2.39-5.81-5.72-5.81h-4.3v5.08a7.35,7.35,0,0,1-7.16,7.26H205a5.84,5.84,0,0,0-5.72,5.82v10.91c0,3.11,2.7,4.93,5.72,5.82a19.28,19.28,0,0,0,11.44,0c2.89-.84,5.72-2.52,5.72-5.82v-4.36H210.74v-1.46h17.17c3.33,0,4.56-2.32,5.72-5.81s1.14-7,0-11.63Zm-16.46,21.8a2.18,2.18,0,1,1-2.15,2.18A2.17,2.17,0,0,1,217.17,1361.25Zm-12.68-16.7h11.44a5.77,5.77,0,0,0,5.72-5.82v-10.92c0-3.1-2.61-5.43-5.72-6a35.1,35.1,0,0,0-11.44,0c-4.85.85-5.73,2.64-5.73,6v4.36h11.46v1.46H194.47a7.15,7.15,0,0,0-7.16,5.81,21.47,21.47,0,0,0,0,11.63c.82,3.39,2.75,5.81,6.09,5.81h3.93v-5.23a7.27,7.27,0,0,1,7.16-7.11Zm-.72-15.28a2.18,2.18,0,1,1,2.15-2.17A2.17,2.17,0,0,1,203.77,1329.27Z"/><rect class="cls-70" x="523.54" y="669.68" width="72" height="836" rx="8" transform="translate(1647.21 528.14) rotate(90)"/><text class="cls-5" transform="translate(257.14 1109.14)">guni<tspan class="cls-17" x="39.88" y="0">c</tspan><tspan x="49.16" y="0">o</tspan><tspan class="cls-39" x="60.69" y="0">r</tspan><tspan x="67.64" y="0">n</tspan></text><path class="cls-48" d="M205,1111.43c-.79-.25-.79-.36-.07-2.56A5.87,5.87,0,0,0,204,1103a11.71,11.71,0,0,1-3-6.33c-.23-2-.31-2.11-1.11-2.27-.53-.1-1.28.1-3,.84-2.56,1.06-3.17,1.54-3.78,2.9a2.69,2.69,0,0,0-.17,2c.22,1,1.12,2.64,1.46,2.65a5,5,0,0,1,1.09.74c.85.68.91.8.67,1.36-.52,1.21-1.77,2.67-2.27,2.67a10,10,0,0,1-2.69-1.88c-2.48-2.13-2.59-2.35-2.85-5.83-.3-4.16.72-6.1,5.28-10l2.85-2.45.19-1.49a29.24,29.24,0,0,0-.53-7.19,3.52,3.52,0,0,0-2-2.55c-.9-.25-1.43.27-2.11,2.06-.74,1.94-1.44,2.61-2.73,2.61a2.46,2.46,0,0,1-2.06-1.41c-.37-.64-.58-4.52-.36-6.57a7.72,7.72,0,0,0,0-2.2c-.16-.38-1.54-1.2-4.8-2.86a13,13,0,0,1-1.53-.89,8.24,8.24,0,0,0-1.46-.79,23.92,23.92,0,0,1-4.16-2.44,20,20,0,0,1,4.29,1.32,10.27,10.27,0,0,0,1.67.64c.13,0,1.65.48,3.38,1.08a32.22,32.22,0,0,0,3.5,1.09c.47,0,.54-.42.39-2.21a4.26,4.26,0,0,1,0-1.49,3,3,0,0,1,.7.35,12.08,12.08,0,0,0,5.46,1,20.78,20.78,0,0,1,6.51,1c1.66.75,3.59,3.11,6,7.38,1.7,3,3.53,4.22,6.15,4.23a58.88,58.88,0,0,0,7.7-1.19c3.15-.62,7.31-.77,8.93-.31a20.42,20.42,0,0,1,6.73,3.9,11.36,11.36,0,0,1,3.57,4.35,73.47,73.47,0,0,1,4.56,10.74,21,21,0,0,0,1,2.23c.87,1.68.83,1.79-.76,1.79a4.72,4.72,0,0,1-3.65-1.23c-1.08-.92-1.37-1.49-3.06-6.08-.87-2.36-1.71-3.77-2.25-3.77-.37,0-1.12,2.52-1.12,3.77,0,.89.56,2.08,2,4.29a20.48,20.48,0,0,1,3.07,12.68l-.21,1.74L238,1111c-2.44.1-2.42.13-2.42-3.37,0-3.72-.25-4.53-1.9-6a41.12,41.12,0,0,1-3.4-3.94,14.17,14.17,0,0,0-2.53-2.81c-.47,0-.7,1.27-.73,4,0,1.77-.09,2.06-.6,2.61-1.42,1.47-2.41,4.16-3,8.16-.13.89-.25,1.06-.82,1.18a10.77,10.77,0,0,1-3.39,0c-.18-.15.13-2.56.82-6.49.26-1.5.55-3.5.64-4.46.15-1.7-.2-4.89-.61-5.53-.17-.27-1-.33-5.13-.35-2.71,0-5.69-.09-6.61-.19l-1.68-.18v.74c0,.8.21,1.5,1.58,5.4.48,1.38,1.17,3.47,1.55,4.65l.67,2.16-.57,1.76a18.37,18.37,0,0,1-1,2.57c-.45.79-.51.81-1.77.8A9.05,9.05,0,0,1,205,1111.43Z"/><rect class="cls-70" x="523.54" y="841.49" width="72" height="836" rx="8" transform="translate(1819.03 699.95) rotate(90)"/><text class="cls-72" transform="translate(257.55 1283.74)">F<tspan class="cls-12" x="9.87" y="0">lask</tspan></text><g class="cls-73"><path class="cls-48" d="M207.82,1248.33c.56-1-2.31-1.33-.38-.35C207.62,1248,207.58,1248.4,207.82,1248.33Zm-15.65-8.43c-1.22-1.59,2.29.27,1.05-1.4C192.18,1237.67,191.18,1239.44,192.17,1239.9Zm2.55,2c1.74-.23-.44-.74-.34,0Zm-1.36-.33,2.76,3c1.07,0-.47-1.44.81-.78-.21-.68-1.49-.81-2.12-1.08-.35.62.72,1.87,1.3,1.86Zm-3.35-.13c.92-.7,3.17.41,1.73-.69C194.36,1243.66,191.32,1244.62,192.77,1244.48Zm-1,1.8c1.62-.55,3.82-1.16,4.58.27-.78-.93-.31-1.85.42-.48,1,1.37,1.55-.63.87-1.09.77,1,1.64,1.4.52.06,1.22-1.47-2.45.19-3.28.17-.4.18-4.14,1-3.1,1.07Zm3,5-.94,2.51-.79-.4c.9-.06,1.41-1-.18-.94-2.46-.26,2.17.84-.31.53-.34.22.47.47.49.41Zm38.41,24.4c1.11,0,3.38-.35.95-.35-.38.06-2.22,0-.95.35Zm-5.34-3.14,4.19,2.86-41.21-25.78,3,2.16-1-.29,10.31-6.49c.47-1.22,1.81-.49.22-.24C201.71,1247,201.63,1247.52,201.46,1247.13Zm-1.28,0-4.5.7c.74-.89,4.19-.57,1.67-.09C196.67,1247.24,196.15,1248.05,195.68,1247.84Zm-.31.2-1.22.49c.07-.82,2,.44.33.3Zm-.89,0-.09.87c.49-1.79,2.6,1.47.8.23a1.18,1.18,0,0,0-.8-.24Zm-5,2.54c-.18-1.07-.16-3,1.63-2.32-2.39.48,1.64,3,1.14,1,1,.05,2-.59,1.43.38,2-.22,3.34-1.93,5.25-1.69a20.82,20.82,0,0,0,4.7-.94c1.32-.1,2.58-1.51,1.86-2.35a20.57,20.57,0,0,0-5.65.46c-2.2.46-4.19,1.33-6.41,1.7s.43.8-.18.91c-1.13.4,1.34.66-.15,1.07-.92-.17-1.88-.49-1.49-1.46-2.07.27-3.89,1.13-2.25,3.23h.12Zm3.47,2.32,36.37,23.5-4-2-32.67-20.18c1-.41-1.88-.84-.21-.08Zm-2.44-1.46-.44.34,3,1.92,5.76,4.26-5.21-3.34-.82-.41-1.45-.36,6.07,4.22,27.45,17.09c1-.21,3.35.52,3.73-.27-1.24,0-4.3-.88-4.44.2l.27,0Zm-28.18-17.28-2.31-1.12,18.46,12.46-18-11.32,24,15.44-4.51-2.84-.54-.4-11.36-7.16-1.32-.31-8.64-5.33c.18-.77-1.71-4.21-.9-1.73C190.34,1258.72,190.3,1259.71,190.94,1259.93Zm4.71,3.72c1,.23,4.13,2.55,2.3.16-.93-.28-.37-2.57-1.33-2.16.64,1.07.53,1.53-.82.85-1.69-.82-1,.41-.62.75C194.73,1263.35,195.78,1263.64,195.65,1263.65Zm25.89,16.67-2.76-1.84.54.26c1.41-1-.86-.2-.3.19Zm-15.79-9.37-.92-.53,14.94,9.42c1.1-.71-.25-.6-.2.06ZM194.94,1264m23,14.72-1.73-.68M192.12,1263c-1.05-1.5-.66-2.18-1.67-3.4-.19-.94-1.74-3.07-.8-.82C190.51,1260.08,190.76,1262.12,192.12,1263Zm24.44,15.48,0,.42-2.32-1.59-10.19-6.3c.72.64,3.32.47.88.08C204.56,1270.53,202.63,1270.66,204.05,1271Zm-7.42-4.47-1.31-.86,19.39,12.17c.65-.63,0,1,1.08-.15,0-.83,0-1.32-1.21-.31C214.25,1277.55,214.11,1278.31,214.71,1277.83Zm-1.22-.51-11.88-7.2-2.32-1.33c.68.51,2.56,1.44,1,.19.54-.62-1-1-.5-1.37-1.32-.81-1-.74-.12-.71-1.59-.71.23-.66.14-1-.61-.12-3-1.08-1.61.08-1.45-.74-.34.27-.78.17-1.49-.41,1.32,1.13-.24.75.85.67,2.29,1.72.36.71C197.25,1268,198.88,1268.51,199.29,1268.79Zm4.38,2.91c1.23.32,1.22-.19.11-.34-.6-.56-2.49-1.15-.8-.07.11.28.47.28.69.41Zm-2.22-1.12,1.08-21.23-.65,3.85c-.43-.76.55-3.35.65-1.74-.45,1.25-.13,2,.19.27.59-1.32-.13,2.61-.84,1.47Zm-.63,1,.39,1,.26.58-4.52-2.52-1.61-1,6.86,5.36-6.15-3.61c.34-.5-.9-2.24.18-.63.46.37,1.34.62.56.78C198.44,1255.31,196.92,1254.53,196.48,1254.09Zm6.5,4.12c.09-1.66.5-1,0,.24Zm-7.12-3.55c.83-.17,3.44,1.46,1,.47C196.64,1254.84,196.07,1255,195.86,1254.66Zm7.58,5.25-3.36-2.16-4.43-2.35c-1.4-1.93,4,1.95.89.49C196.21,1255.8,195.81,1255.77,195.65,1255.4Zm7.69,5.21.4.4-2.3-1.36c-.94-.56-.25-4,.07-1.64.92-.3,0,1.2.63,1.19-.1.94-.41,1.28-.7.45Zm-6.22-3.62c-2.17-1.93,2.73,1,.35.36Zm1.39,1.34-.7-.23-1.14,0c-.74-.74-1.28-1.42,0-.46.51,0-1.13-1.55.12-.5C196.25,1256.45,195.58,1258.38,194.77,1257.17Zm2.17,1.68-.9-.31,2,1.38a5,5,0,0,1-.67-2.5c.15.76,1.61,3.25.71,1-1-1.86,1.18.6,1.41,1.06s-.61-.12-.13,1C198.49,1259.25,198.85,1261.16,198.05,1259.92Zm6.49,4.33c-.7-1.58.5-.86.16.26Zm-3.76-1.2,4.38,3-6.21-3.37,7.8,5.39.65.86,7.41,5.63-6.48-4.11c-.59-.62-.74-1.78-.1-.77C208.55,1269.86,209.28,1271.62,208.33,1270.5Zm2,5.62c1.55-.93,1,2.16,2.62.26,1.57-1.14-1.35,1.41.58.2,1.39-.93,3.45.44,4.75.89.94,0,1.85.81,2.81.29,1.85-.5-3.61-.74-2.18-1.62-1.69.49-2.94-.59-3.77-1.67-1.9-.44-4.09-1.4-5-3.08-.39-.63.56.09-.34-.94a13.91,13.91,0,0,1-2.48-3.41c-.91-.48-1-1.92-1.11,0,0-1.19-1.11-2-1.38-1.66,0-1.14,1.19-.57.36-1.41-.18-1.18-.78-2.42-1-3.75-.28-.65,0-2-.95-.57-.33,1.54-.11-1.89.4-.76.68-1.16-.24-1-.28-.86.44-1,.28-2.36-.11-1.83.23-1,.37-3.8-.35-3.31.44-1.08.83-4.95-1.07-3.47a8.06,8.06,0,0,0-2.72.59c2,1.08-.2.39-1,.22-.11,1-.9.57-1.9.58,1.59.19-.77,1.62-1.68,1.07-1.18.56,1,2,0,2.41.12.65-1.81-.24-1.66,1.28-1.15-.49-.16,1.8.41,1,2,.53,1.38,1.74,1.42,2.88-.31.66-1.56-1.57-.28-1.46-1-1.66-1.12-.6-2,.17-.2,0,2.15,1.09.68,1.6,1.3.2,1.33,1.34,1.6,2.06.78.82.62-.9,1.55.08-.59-.87-3.13-2.45-1.08-2,0-.88-.37-1.58.25-1.56.62-1.13-.65,2.77.75,1.34.39-.17.48-1.13,1.18.09,1,1,.37,1.72-1.06.81.26.86,1.91,1.17,1.6,2.53.33,1.19.79.75,1.19.68.32,1.16.5.31.51-.25,1.44.31,1.11,1.16,1.56,1.76,1,.45-1.43-3,.28-1,1.8,1.62.68,2.3-.94,2,1-.08,1.35,1.38,2.63,1.33,1.16.55,2,2.68-.06,1.79-.69-.62-3.16-1.4-1.14-.2a47,47,0,0,1,5.12,2.45c1.28.92,1.84,2,2.32,2.17-1.08.52-3.25-.41-1.63-.69-1-.19-2.14-.69-1.18.56.82.68,2.9.61,3.28.69-.32.69-.86.75,0,.8-1,.52.31.6.4.9Zm-5.75-3.54c1.65.21-2-1.13-.36-.12Zm4.41,3-8.48-5.27,5,3.18,7.33,4.75-6.73-4.13-10.82-6.87,4.12,2.66,3.48,2.51,9.26,5.71-12.94-8,9.29,5.92-3.95-2.28c2.28.65-1.92-1.44-.56-.23l.3.13.26.1Zm2,1.57-6.48-4c.93.72,3.76.1,1.43-.42-1.06-.57-3.46-1-1.83.34Zm5.17,3.55-1.94-1.19-2.3-1.34,7.85,6.11c.79.5,4.64,1.1,2.23.21-.4.08-4.46-1.15-2.24-.21Zm-4.94-3.08-1-.49,4.33,3-2.25-1.26-1.32-.55-1.05-.38-7.91-7,5.58,6.14c1.94.72,0-1.37-.9-1.25-.39-.68-1.5-1.11-.72-1.48-1.4.49-1.47-1.86-2.14-1.52-1.48-.47-.58-2.14-2.35-3.16-.16-1.08-1.76-2-2.27-3.65-.23-.83-1.81-3.22-.84-1a31.76,31.76,0,0,0,3.5,5.82,12,12,0,0,0,3.77,4.66C198.9,1273.89,199.46,1274.74,200.27,1274.92Zm3.81,2.69a22.72,22.72,0,0,0,6.15,2.05c3.48.48,7.07,1.23,10.57.55-1.58-.71-3.22.28-4.79-.51-1.89.41-3.92-.1-5.84-.35-2.18-1-4.54-1.64-6.58-2.91-2.55-.93,1.32,1.2,2,1.37,1.6.91-1.75-.46-2.23-.84-1.33-.75-1.51-.59-.13.17.28.16.55.33.84.47Zm-3.23-1.4a23.14,23.14,0,0,1-5.11-4.76,38.8,38.8,0,0,1-6.44-11.55c-.89-2.71-1.2-5.62-2.35-8.22-1.2-1.89.21-4,2.28-4.56.92-.18,2.54-1,.58-.43-1.75,1.29-1.92-1.17-.12-1.32a1.42,1.42,0,0,0,1.26-2.07c-1.32-.86,3.2-1.81.92-3.09-2.36-2.56,3.32-3,1.92-.15-.34,2.23,4-.41,3,2.17,1,1.23,3.8.28,3.73,2,1.48.1,2,1.35,3.37,1.44,1.44.65,4,1.16,4.53,2.78-1.42,1.14-4.72-2.33-4.88.8.43,4.62.32,9.38,2,13.78.8,2.66,2.74,4.76,4.48,6.83a19.86,19.86,0,0,0,6.26,4.67,26.13,26.13,0,0,0,6.42,2c.9-.69,2.48-3.24,3.88-2.16.07,1.2-2.78,2.52-.13,2.39,1.55-.47,2.62,1.2,3.9-.31,1.18,1.4,4.89-.89,4.06,2-1.14.73-2.79.29-3.92,1.3-1.87-.94-3.36.83-5.43.61a39.74,39.74,0,0,1-7,.58c-3.82-.3-7.73-.43-11.37-1.76a23.24,23.24,0,0,1-5.85-2.93Z"/></g><rect class="cls-70" x="523.54" y="755.58" width="72" height="836" rx="8" transform="translate(1733.12 614.05) rotate(90)"/><text class="cls-5" transform="translate(257.55 1197.83)">Jinja</text><path class="cls-48" d="M228.51,1150.73l-.17.09s-9.45,4.61-17.08,5.62c-3.84.51-9.43,1-14.43,1.31q-3.36.21-6.74.25a21.6,21.6,0,0,1-4-.23,39.22,39.22,0,0,1-5-1.56l-.53-.21.72,2.49-1.91,1.71.52.93.91.07,2.18.28.34,1.09,1.31.12.66,2.28.19,0s2.77.24,3.65.24,1.93-.09,2.22-.11l0,.84.6.12v.36l-1.43,1.52.34.06c-.3,0-.49,0-1.07.06a17.59,17.59,0,0,1-2.57,0c-1.26-.19-1.52-.19-1.52-.22h-.12l-.26.31-.1,1.82h.43l.12,2.3,6.05-.24-.42,7.61,0,.71-4.63-.26,0-1.57h1.08l.12-1.47,1-.23.48-.66-4.52-1.09-3.64,1.08,1,2.37h.35l0-.83-1.34.06v1.63l1.09.34.41.86.64.14v2.07h0V1190l-1.1.19.19,2.73.65.13-.11,5.13,3.51.07-.62-5,3.85-.1-.27,2.38-.49,2.26,5.07.07.07-5.12,3.08-.28-.17,3-.14,2.31h3.8l-.12-5.36.41.06.16-3.25h.26l-.13-.86-.28-2.75.11-2.8h1.5v-2.64l-1.65,0,.09-1.72.92-.09,0-.75.37-.06,1.09-.83-3.9-.8-3.66.81.62,1,.51,0h.11l.07,1,1.12-.05V1180l-3.49-.07.11-1.87,1.24-2v-2.6l-1-2.46,7.45-.38,8.87-.51.08,1.44-.33,4.16-.13,2.74h-2.11v-1.34l.5-.05.06-.79.58-.09,0-.12.33,0,.61-.83-4.29-1-4.24.91.55,1,1.66,0v.26h0v2.14H204l0,1.57.4.05,0,2.09,2.66,0V1190l-3,.23,0,1.11h.87v2.14h.12l-.15,2.33-.23,2.81,4.63.12-.15-2.5-.29-1.81-.05-1.27,2.83-.05-.3,2.14v2.84l2.4.18,2.68-.11,1.14-.34-.54-1.62-.11-2.14-.17-1.24,2.63-.1.52,1.59v3.23l.93.15,1.35,0,.88-.28-.4-3-.1-1.85,1.61,0v-1.92l-.89,0-.06-1.29h-.65l-.54-.76v-5.75H224v-1.93l-2.14,0v-2.83l1.59-.11-.08-.77.56,0-.05-.25,1.24-.62-4.39-.88-4,.81.49.93.48,0,0,1.56h1.62l.08,2.14h-3.57l-.45-4.12-.38-1.77-.31-3.13.16-1.6,7-.62,0-2.52.41-.1,0-.81-.5-.29h-.08l-.74.11-1.64.24c-1.12.17-2.24.32-3.37.46l-.39,0,0-.38-1.63-.87v-.58l.57,0,0-1.42,1.6-.13a25.9,25.9,0,0,0,2.82-.38c1.23-.3,3-.6,3-.6l.16,0,.85-2.35,1.66-.5.14-.39,3.69-1,.63-.54-1.48-3.31.1-.5.71-.38.61-1.93-.52-.47Zm-17.58,12.53,0,1.12.87,0,0,.68-1.68,1.11-.19.55-4,.19,0-.39.24-.39-1.35-.32v-.49l1.52-.34.61-.34v-.19l-.38-.69Zm-11.07,1-.09.57.42.5,0,.82.38.58-.1.7.05.08-3.94.15,0-.32-1.4-.76,0-.73.62,0,.06-1.28Zm9.22,18.17,2,.17-.11,4.14.39,3.29-4.47-.1,2.14-7.5Zm-23.53.09,4.73.25-.43,2.8v2.67l.3,1.15-4.57.21Zm34.22.11v7l-2.76.2-.11-3.68-.34-3.4Zm-24.89.17h3.52v6.4l-3.25.06,1.11-2V1185Z"/><path class="cls-3" d="M898.34,1018l1.78,1.78a1.92,1.92,0,0,1,0,2.73l-15.61,15.62a1.93,1.93,0,0,1-2.72,0l-15.62-15.62a1.92,1.92,0,0,1,0-2.73L868,1018a1.94,1.94,0,0,1,2.76,0l9.22,9.68V764.62a1.92,1.92,0,0,1,1.93-1.93h2.57a1.92,1.92,0,0,1,1.93,1.93v263.09l9.22-9.68A1.92,1.92,0,0,1,898.34,1018Z"/><path class="cls-3" d="M347.12,1022.51l-15.61,15.62a1.93,1.93,0,0,1-2.72,0l-15.62-15.62a1.92,1.92,0,0,1,0-2.73L315,1018a1.94,1.94,0,0,1,2.76,0l9.22,9.68V650.62a1.92,1.92,0,0,1,1.93-1.93h2.57a1.92,1.92,0,0,1,1.93,1.93v377.09l9.22-9.68a1.92,1.92,0,0,1,2.76,0l1.78,1.78A1.92,1.92,0,0,1,347.12,1022.51Z"/><path class="cls-3" d="M1194.36,1112.48v2.43a2,2,0,0,1-2,2H1019.13l9.68,9.22a1.92,1.92,0,0,1,0,2.76l-1.78,1.78a1.92,1.92,0,0,1-2.73,0l-15.62-15.61a1.93,1.93,0,0,1,0-2.72l15.62-15.62a1.92,1.92,0,0,1,2.73,0l1.78,1.78a1.94,1.94,0,0,1,0,2.76l-9.68,9.22h173.23A2,2,0,0,1,1194.36,1112.48Z"/></svg>